<svg xmlns="http://www.w3.org/2000/svg" version="1.1" xmlns:xlink="http://www.w3.org/1999/xlink" xmlns:svgjs="http://svgjs.dev/svgjs" width="1440" height="560" preserveAspectRatio="none" viewBox="0 0 1440 560"><g mask="url(&quot;#SvgjsMask1080&quot;)" fill="none"><rect width="1440" height="560" x="0" y="0" fill="url(&quot;#SvgjsLinearGradient1081&quot;)"></rect><path d="M1440 0L737.98 0L1440 235.14z" fill="rgba(255, 255, 255, .1)"></path><path d="M737.98 0L1440 235.14L1440 383.22L625.6600000000001 0z" fill="rgba(255, 255, 255, .075)"></path><path d="M625.6600000000001 0L1440 383.22L1440 384.07000000000005L350.2000000000001 0z" fill="rgba(255, 255, 255, .05)"></path><path d="M350.20000000000005 0L1440 384.07000000000005L1440 442.83000000000004L123.81000000000006 0z" fill="rgba(255, 255, 255, .025)"></path><path d="M0 560L531.01 560L0 498.69z" fill="rgba(0, 0, 0, .1)"></path><path d="M0 498.69L531.01 560L1030.98 560L0 411.15z" fill="rgba(0, 0, 0, .075)"></path><path d="M0 411.15L1030.98 560L1076.6100000000001 560L0 317.41999999999996z" fill="rgba(0, 0, 0, .05)"></path><path d="M0 317.41999999999996L1076.6100000000001 560L1320.5 560L0 304.16999999999996z" fill="rgba(0, 0, 0, .025)"></path></g><defs><mask id="SvgjsMask1080"><rect width="1440" height="560" fill="#ffffff"></rect></mask><linearGradient x1="15.28%" y1="-39.29%" x2="84.72%" y2="139.29%" gradientUnits="userSpaceOnUse" id="SvgjsLinearGradient1081"><stop stop-color="rgba(255, 0, 30, 0.25)" offset="0"></stop><stop stop-color="rgba(234, 98, 18, 1)" offset="1"></stop></linearGradient></defs></svg>