<svg xmlns="http://www.w3.org/2000/svg" style="display: none;">
    <symbol id="icon-move-up" viewBox="0 0 16 16">
        <path fill-rule="evenodd"
              d="M8 15a.5.5 0 0 0 .5-.5V2.707l3.146 3.147a.5.5 0 0 0 .708-.708l-4-4a.5.5 0 0 0-.708 0l-4 4a.5.5 0 1 0 .708.708L7.5 2.707V14.5a.5.5 0 0 0 .5.5"/>
    </symbol>
    <symbol id="icon-edit" viewBox="0 0 16 16">
        <path d="M16 4.5a4.5 4.5 0 0 1-1.703 3.526L13 5l2.959-1.11q.04.3.041.61"/>
        <path d="M11.5 9c.653 0 1.273-.139 1.833-.39L12 5.5 11 3l3.826-1.53A4.5 4.5 0 0 0 7.29 6.092l-6.116 5.096a2.583 2.583 0 1 0 3.638 3.638L9.908 8.71A4.5 4.5 0 0 0 11.5 9m-1.292-4.361-.596.893.809-.27a.25.25 0 0 1 .287.377l-.596.893.809-.27.158.475-1.5.5a.25.25 0 0 1-.287-.376l.596-.893-.809.27a.25.25 0 0 1-.287-.377l.596-.893-.809.27-.158-.475 1.5-.5a.25.25 0 0 1 .287.376M3 14a1 1 0 1 1 0-2 1 1 0 0 1 0 2"/>
    </symbol>
    <symbol id="icon-move-down" viewBox="0 0 16 16">
        <path fill-rule="evenodd"
              d="M8 1a.5.5 0 0 1 .5.5v11.793l3.146-3.147a.5.5 0 0 1 .708.708l-4 4a.5.5 0 0 1-.708 0l-4-4a.5.5 0 0 1 .708-.708L7.5 13.293V1.5A.5.5 0 0 1 8 1"/>
    </symbol>
    <symbol id="icon-delete" viewBox="0 0 16 16">
        <path d="M6.5 1h3a.5.5 0 0 1 .5.5v1H6v-1a.5.5 0 0 1 .5-.5M11 2.5v-1A1.5 1.5 0 0 0 9.5 0h-3A1.5 1.5 0 0 0 5 1.5v1H1.5a.5.5 0 0 0 0 1h.538l.853 10.66A2 2 0 0 0 4.885 16h6.23a2 2 0 0 0 1.994-1.84l.853-10.66h.538a.5.5 0 0 0 0-1zm1.958 1-.846 10.58a1 1 0 0 1-.997.92h-6.23a1 1 0 0 1-.997-.92L3.042 3.5zm-7.487 1a.5.5 0 0 1 .528.47l.5 8.5a.5.5 0 0 1-.998.06L5 5.03a.5.5 0 0 1 .47-.53Zm5.058 0a.5.5 0 0 1 .47.53l-.5 8.5a.5.5 0 1 1-.998-.06l.5-8.5a.5.5 0 0 1 .528-.47M8 4.5a.5.5 0 0 1 .5.5v8.5a.5.5 0 0 1-1 0V5a.5.5 0 0 1 .5-.5"/>
    </symbol>
</svg>
