<svg xmlns="http://www.w3.org/2000/svg" xmlns:xlink="http://www.w3.org/1999/xlink" width="1000" zoomAndPan="magnify" viewBox="0 0 750 749.999995" height="1000" preserveAspectRatio="xMidYMid meet" version="1.0"><defs><g/></defs><g fill="#ff00ff" fill-opacity="1"><g transform="translate(27.405587, 434.180418)"><g><path d="M 75.578125 -1.4375 C 75.734375 -1.125 75.691406 -0.804688 75.453125 -0.484375 C 75.210938 -0.160156 74.894531 0 74.5 0 L 57.890625 0 C 57.328125 0 56.960938 -0.238281 56.796875 -0.71875 L 37.78125 -54.390625 L 19.015625 -0.71875 C 18.929688 -0.238281 18.53125 0 17.8125 0 L 1.328125 0 C 0.765625 0 0.378906 -0.160156 0.171875 -0.484375 C -0.0234375 -0.804688 -0.0390625 -1.125 0.125 -1.4375 L 36.578125 -95.546875 C 36.742188 -96.035156 37.144531 -96.28125 37.78125 -96.28125 C 38.425781 -96.28125 38.828125 -96.035156 38.984375 -95.546875 Z M 75.578125 -1.4375 "/></g></g></g><g fill="#ff00ff" fill-opacity="1"><g transform="translate(106.829857, 434.180418)"><g><path d="M 71 -96.28125 C 71.800781 -96.28125 72.203125 -95.914062 72.203125 -95.1875 L 72.203125 -32.125 C 72.203125 -25.382812 70.617188 -19.609375 67.453125 -14.796875 C 64.285156 -9.984375 59.972656 -6.3125 54.515625 -3.78125 C 49.054688 -1.257812 42.921875 0 36.109375 0 C 29.523438 0 23.484375 -1.300781 17.984375 -3.90625 C 12.492188 -6.519531 8.125 -10.234375 4.875 -15.046875 C 1.625 -19.859375 0 -25.550781 0 -32.125 L 0 -78.828125 L 18.171875 -78.828125 L 18.171875 -32.25 C 18.734375 -27.519531 20.757812 -23.910156 24.25 -21.421875 C 27.738281 -18.929688 31.691406 -17.6875 36.109375 -17.6875 C 39.148438 -17.6875 42.035156 -18.207031 44.765625 -19.25 C 47.492188 -20.289062 49.71875 -21.894531 51.4375 -24.0625 C 53.164062 -26.226562 54.03125 -28.914062 54.03125 -32.125 L 54.03125 -95.1875 C 54.03125 -95.914062 54.472656 -96.28125 55.359375 -96.28125 Z M 71 -96.28125 "/></g></g></g><g fill="#ff00ff" fill-opacity="1"><g transform="translate(182.643929, 434.180418)"><g><path d="M 19.859375 -61.375 L 38.15625 -61.375 L 38.15625 -1.078125 C 38.15625 -0.359375 37.671875 0 36.703125 0 L 21.1875 0 C 20.300781 0 19.859375 -0.359375 19.859375 -1.078125 Z M 1.328125 -79.78125 C 0.441406 -79.78125 0 -80.144531 0 -80.875 L 0 -95.1875 C 0 -95.914062 0.441406 -96.28125 1.328125 -96.28125 L 56.5625 -96.28125 C 57.445312 -96.28125 57.890625 -95.914062 57.890625 -95.1875 L 57.890625 -80.875 C 57.890625 -80.144531 57.445312 -79.78125 56.5625 -79.78125 Z M 1.328125 -79.78125 "/></g></g></g><g fill="#ff00ff" fill-opacity="1"><g transform="translate(243.415533, 434.180418)"><g><path d="M 55.359375 -47.890625 C 55.359375 -45.410156 54.492188 -43.285156 52.765625 -41.515625 C 51.046875 -39.753906 48.898438 -38.875 46.328125 -38.875 C 43.847656 -38.875 41.722656 -39.753906 39.953125 -41.515625 C 38.191406 -43.285156 37.3125 -45.410156 37.3125 -47.890625 C 37.3125 -50.460938 38.191406 -52.628906 39.953125 -54.390625 C 41.722656 -56.160156 43.847656 -57.046875 46.328125 -57.046875 C 48.898438 -57.046875 51.046875 -56.160156 52.765625 -54.390625 C 54.492188 -52.628906 55.359375 -50.460938 55.359375 -47.890625 Z M 92.671875 -48.265625 C 92.671875 -42.242188 91.707031 -36.363281 89.78125 -30.625 C 87.851562 -24.882812 84.960938 -19.707031 81.109375 -15.09375 C 77.253906 -10.488281 72.4375 -6.820312 66.65625 -4.09375 C 60.882812 -1.363281 54.148438 0 46.453125 0 C 38.671875 0 31.867188 -1.363281 26.046875 -4.09375 C 20.234375 -6.820312 15.398438 -10.488281 11.546875 -15.09375 C 7.703125 -19.707031 4.816406 -24.882812 2.890625 -30.625 C 0.960938 -36.363281 0 -42.242188 0 -48.265625 C 0 -54.273438 0.960938 -60.128906 2.890625 -65.828125 C 4.816406 -71.523438 7.703125 -76.660156 11.546875 -81.234375 C 15.398438 -85.804688 20.234375 -89.457031 26.046875 -92.1875 C 31.867188 -94.914062 38.671875 -96.28125 46.453125 -96.28125 C 54.148438 -96.28125 60.882812 -94.914062 66.65625 -92.1875 C 72.4375 -89.457031 77.253906 -85.804688 81.109375 -81.234375 C 84.960938 -76.660156 87.851562 -71.523438 89.78125 -65.828125 C 91.707031 -60.128906 92.671875 -54.273438 92.671875 -48.265625 Z M 74.609375 -47.890625 C 74.609375 -51.828125 74.003906 -55.660156 72.796875 -59.390625 C 71.597656 -63.117188 69.832031 -66.488281 67.5 -69.5 C 65.175781 -72.507812 62.25 -74.894531 58.71875 -76.65625 C 55.195312 -78.425781 51.109375 -79.3125 46.453125 -79.3125 C 41.722656 -79.3125 37.59375 -78.425781 34.0625 -76.65625 C 30.53125 -74.894531 27.578125 -72.507812 25.203125 -69.5 C 22.835938 -66.488281 21.070312 -63.117188 19.90625 -59.390625 C 18.75 -55.660156 18.171875 -51.828125 18.171875 -47.890625 C 18.171875 -44.046875 18.75 -40.273438 19.90625 -36.578125 C 21.070312 -32.890625 22.835938 -29.5625 25.203125 -26.59375 C 27.578125 -23.625 30.53125 -21.253906 34.0625 -19.484375 C 37.59375 -17.722656 41.722656 -16.84375 46.453125 -16.84375 C 51.109375 -16.84375 55.195312 -17.722656 58.71875 -19.484375 C 62.25 -21.253906 65.175781 -23.625 67.5 -26.59375 C 69.832031 -29.5625 71.597656 -32.890625 72.796875 -36.578125 C 74.003906 -40.273438 74.609375 -44.046875 74.609375 -47.890625 Z M 74.609375 -47.890625 "/></g></g></g><g fill="#ff00ff" fill-opacity="1"><g transform="translate(340.650094, 434.180418)"><g><path d="M 86.171875 -23.21875 L 86.171875 -53.796875 L 61.609375 -4.578125 C 61.453125 -4.085938 61.09375 -3.84375 60.53125 -3.84375 L 45.734375 -3.84375 C 45.085938 -3.84375 44.6875 -4.085938 44.53125 -4.578125 L 18.40625 -55.125 L 18.40625 -1.078125 C 18.40625 -0.359375 17.96875 0 17.09375 0 L 1.203125 0 C 0.398438 0 0 -0.359375 0 -1.078125 L 0 -95.1875 C 0 -95.914062 0.398438 -96.28125 1.203125 -96.28125 L 17.328125 -96.28125 C 17.972656 -96.28125 18.375 -96.035156 18.53125 -95.546875 L 53.078125 -25.03125 L 85.921875 -95.546875 C 86.242188 -96.035156 86.6875 -96.28125 87.25 -96.28125 L 103.140625 -96.28125 C 104.015625 -96.28125 104.453125 -95.914062 104.453125 -95.1875 L 104.453125 -23.21875 Z M 86.171875 -23.21875 "/></g></g></g><g fill="#ff00ff" fill-opacity="1"><g transform="translate(450.399982, 434.180418)"><g><path d="M 75.578125 -1.4375 C 75.734375 -1.125 75.691406 -0.804688 75.453125 -0.484375 C 75.210938 -0.160156 74.894531 0 74.5 0 L 57.890625 0 C 57.328125 0 56.960938 -0.238281 56.796875 -0.71875 L 37.78125 -54.390625 L 19.015625 -0.71875 C 18.929688 -0.238281 18.53125 0 17.8125 0 L 1.328125 0 C 0.765625 0 0.378906 -0.160156 0.171875 -0.484375 C -0.0234375 -0.804688 -0.0390625 -1.125 0.125 -1.4375 L 36.578125 -95.546875 C 36.742188 -96.035156 37.144531 -96.28125 37.78125 -96.28125 C 38.425781 -96.28125 38.828125 -96.035156 38.984375 -95.546875 Z M 75.578125 -1.4375 "/></g></g></g><g fill="#ff00ff" fill-opacity="1"><g transform="translate(529.824264, 434.180418)"><g><path d="M 73.40625 -78.578125 L 55 -78.578125 C 52.664062 -78.660156 49.9375 -78.601562 46.8125 -78.40625 C 43.6875 -78.207031 40.476562 -77.601562 37.1875 -76.59375 C 33.894531 -75.59375 30.820312 -74.007812 27.96875 -71.84375 C 25.125 -69.675781 22.835938 -66.664062 21.109375 -62.8125 C 19.390625 -58.96875 18.53125 -54.078125 18.53125 -48.140625 C 18.53125 -40.515625 20.113281 -34.394531 23.28125 -29.78125 C 26.457031 -25.164062 30.789062 -21.894531 36.28125 -19.96875 C 41.78125 -18.050781 48.019531 -17.25 55 -17.5625 L 55 -41.640625 L 36.46875 -41.640625 L 36.46875 -60.046875 L 73.40625 -60.046875 L 73.40625 -1.078125 C 73.40625 -0.359375 72.960938 0 72.078125 0 L 56.4375 0 C 51.707031 0 46.753906 -0.316406 41.578125 -0.953125 C 36.398438 -1.597656 31.34375 -2.84375 26.40625 -4.6875 C 21.476562 -6.539062 17.023438 -9.226562 13.046875 -12.75 C 9.078125 -16.28125 5.910156 -20.929688 3.546875 -26.703125 C 1.179688 -32.484375 0 -39.628906 0 -48.140625 C 0 -56.398438 1.160156 -63.359375 3.484375 -69.015625 C 5.816406 -74.671875 8.96875 -79.285156 12.9375 -82.859375 C 16.90625 -86.429688 21.335938 -89.195312 26.234375 -91.15625 C 31.128906 -93.125 36.179688 -94.46875 41.390625 -95.1875 C 46.609375 -95.914062 51.625 -96.28125 56.4375 -96.28125 L 72.078125 -96.28125 C 72.960938 -96.28125 73.40625 -95.914062 73.40625 -95.1875 Z M 73.40625 -78.578125 "/></g></g></g><g fill="#ff00ff" fill-opacity="1"><g transform="translate(606.962063, 434.180418)"><g><path d="M 39.234375 -16.484375 C 40.117188 -16.484375 40.5625 -16.125 40.5625 -15.40625 L 40.5625 -1.078125 C 40.5625 -0.359375 40.117188 0 39.234375 0 L 1.328125 0 C 0.441406 0 0 -0.359375 0 -1.078125 L 0 -15.40625 C 0 -16.125 0.441406 -16.484375 1.328125 -16.484375 L 11.1875 -16.484375 L 11.1875 -96.28125 L 29.609375 -96.28125 L 29.609375 -16.484375 Z M 39.234375 -16.484375 "/></g></g></g><g fill="#ff00ff" fill-opacity="1"><g transform="translate(649.562326, 434.180418)"><g><path d="M 76.78125 -1.8125 C 77.175781 -1.320312 77.253906 -0.894531 77.015625 -0.53125 C 76.773438 -0.175781 76.335938 0 75.703125 0 L 55 0 C 54.519531 0 54.15625 -0.117188 53.90625 -0.359375 L 25.875 -35.015625 C 25.46875 -34.617188 24.5625 -33.632812 23.15625 -32.0625 C 21.757812 -30.5 20.078125 -28.613281 18.109375 -26.40625 C 16.140625 -24.207031 14.113281 -21.921875 12.03125 -19.546875 C 9.945312 -17.179688 7.984375 -14.957031 6.140625 -12.875 C 4.296875 -10.789062 2.8125 -9.101562 1.6875 -7.8125 C 0.5625 -6.53125 0 -5.890625 0 -5.890625 L 0 -95.1875 C 0 -95.914062 0.441406 -96.28125 1.328125 -96.28125 L 17.203125 -96.28125 C 18.003906 -96.28125 18.40625 -95.914062 18.40625 -95.1875 L 18.40625 -51.390625 L 54.640625 -95.90625 C 54.878906 -96.15625 55.238281 -96.28125 55.71875 -96.28125 L 75.328125 -96.28125 C 75.972656 -96.28125 76.414062 -96.078125 76.65625 -95.671875 C 76.894531 -95.273438 76.816406 -94.875 76.421875 -94.46875 L 38.15625 -47.296875 Z M 76.78125 -1.8125 "/></g></g></g><g fill="#00ffff" fill-opacity="1"><g transform="translate(19.433497, 434.31958)"><g><path d="M 75.578125 -1.4375 C 75.734375 -1.125 75.691406 -0.804688 75.453125 -0.484375 C 75.210938 -0.160156 74.894531 0 74.5 0 L 57.890625 0 C 57.328125 0 56.960938 -0.238281 56.796875 -0.71875 L 37.78125 -54.390625 L 19.015625 -0.71875 C 18.929688 -0.238281 18.53125 0 17.8125 0 L 1.328125 0 C 0.765625 0 0.378906 -0.160156 0.171875 -0.484375 C -0.0234375 -0.804688 -0.0390625 -1.125 0.125 -1.4375 L 36.578125 -95.546875 C 36.742188 -96.035156 37.144531 -96.28125 37.78125 -96.28125 C 38.425781 -96.28125 38.828125 -96.035156 38.984375 -95.546875 Z M 75.578125 -1.4375 "/></g></g></g><g fill="#00ffff" fill-opacity="1"><g transform="translate(98.857768, 434.31958)"><g><path d="M 71 -96.28125 C 71.800781 -96.28125 72.203125 -95.914062 72.203125 -95.1875 L 72.203125 -32.125 C 72.203125 -25.382812 70.617188 -19.609375 67.453125 -14.796875 C 64.285156 -9.984375 59.972656 -6.3125 54.515625 -3.78125 C 49.054688 -1.257812 42.921875 0 36.109375 0 C 29.523438 0 23.484375 -1.300781 17.984375 -3.90625 C 12.492188 -6.519531 8.125 -10.234375 4.875 -15.046875 C 1.625 -19.859375 0 -25.550781 0 -32.125 L 0 -78.828125 L 18.171875 -78.828125 L 18.171875 -32.25 C 18.734375 -27.519531 20.757812 -23.910156 24.25 -21.421875 C 27.738281 -18.929688 31.691406 -17.6875 36.109375 -17.6875 C 39.148438 -17.6875 42.035156 -18.207031 44.765625 -19.25 C 47.492188 -20.289062 49.71875 -21.894531 51.4375 -24.0625 C 53.164062 -26.226562 54.03125 -28.914062 54.03125 -32.125 L 54.03125 -95.1875 C 54.03125 -95.914062 54.472656 -96.28125 55.359375 -96.28125 Z M 71 -96.28125 "/></g></g></g><g fill="#00ffff" fill-opacity="1"><g transform="translate(174.67184, 434.31958)"><g><path d="M 19.859375 -61.375 L 38.15625 -61.375 L 38.15625 -1.078125 C 38.15625 -0.359375 37.671875 0 36.703125 0 L 21.1875 0 C 20.300781 0 19.859375 -0.359375 19.859375 -1.078125 Z M 1.328125 -79.78125 C 0.441406 -79.78125 0 -80.144531 0 -80.875 L 0 -95.1875 C 0 -95.914062 0.441406 -96.28125 1.328125 -96.28125 L 56.5625 -96.28125 C 57.445312 -96.28125 57.890625 -95.914062 57.890625 -95.1875 L 57.890625 -80.875 C 57.890625 -80.144531 57.445312 -79.78125 56.5625 -79.78125 Z M 1.328125 -79.78125 "/></g></g></g><g fill="#00ffff" fill-opacity="1"><g transform="translate(235.443444, 434.31958)"><g><path d="M 55.359375 -47.890625 C 55.359375 -45.410156 54.492188 -43.285156 52.765625 -41.515625 C 51.046875 -39.753906 48.898438 -38.875 46.328125 -38.875 C 43.847656 -38.875 41.722656 -39.753906 39.953125 -41.515625 C 38.191406 -43.285156 37.3125 -45.410156 37.3125 -47.890625 C 37.3125 -50.460938 38.191406 -52.628906 39.953125 -54.390625 C 41.722656 -56.160156 43.847656 -57.046875 46.328125 -57.046875 C 48.898438 -57.046875 51.046875 -56.160156 52.765625 -54.390625 C 54.492188 -52.628906 55.359375 -50.460938 55.359375 -47.890625 Z M 92.671875 -48.265625 C 92.671875 -42.242188 91.707031 -36.363281 89.78125 -30.625 C 87.851562 -24.882812 84.960938 -19.707031 81.109375 -15.09375 C 77.253906 -10.488281 72.4375 -6.820312 66.65625 -4.09375 C 60.882812 -1.363281 54.148438 0 46.453125 0 C 38.671875 0 31.867188 -1.363281 26.046875 -4.09375 C 20.234375 -6.820312 15.398438 -10.488281 11.546875 -15.09375 C 7.703125 -19.707031 4.816406 -24.882812 2.890625 -30.625 C 0.960938 -36.363281 0 -42.242188 0 -48.265625 C 0 -54.273438 0.960938 -60.128906 2.890625 -65.828125 C 4.816406 -71.523438 7.703125 -76.660156 11.546875 -81.234375 C 15.398438 -85.804688 20.234375 -89.457031 26.046875 -92.1875 C 31.867188 -94.914062 38.671875 -96.28125 46.453125 -96.28125 C 54.148438 -96.28125 60.882812 -94.914062 66.65625 -92.1875 C 72.4375 -89.457031 77.253906 -85.804688 81.109375 -81.234375 C 84.960938 -76.660156 87.851562 -71.523438 89.78125 -65.828125 C 91.707031 -60.128906 92.671875 -54.273438 92.671875 -48.265625 Z M 74.609375 -47.890625 C 74.609375 -51.828125 74.003906 -55.660156 72.796875 -59.390625 C 71.597656 -63.117188 69.832031 -66.488281 67.5 -69.5 C 65.175781 -72.507812 62.25 -74.894531 58.71875 -76.65625 C 55.195312 -78.425781 51.109375 -79.3125 46.453125 -79.3125 C 41.722656 -79.3125 37.59375 -78.425781 34.0625 -76.65625 C 30.53125 -74.894531 27.578125 -72.507812 25.203125 -69.5 C 22.835938 -66.488281 21.070312 -63.117188 19.90625 -59.390625 C 18.75 -55.660156 18.171875 -51.828125 18.171875 -47.890625 C 18.171875 -44.046875 18.75 -40.273438 19.90625 -36.578125 C 21.070312 -32.890625 22.835938 -29.5625 25.203125 -26.59375 C 27.578125 -23.625 30.53125 -21.253906 34.0625 -19.484375 C 37.59375 -17.722656 41.722656 -16.84375 46.453125 -16.84375 C 51.109375 -16.84375 55.195312 -17.722656 58.71875 -19.484375 C 62.25 -21.253906 65.175781 -23.625 67.5 -26.59375 C 69.832031 -29.5625 71.597656 -32.890625 72.796875 -36.578125 C 74.003906 -40.273438 74.609375 -44.046875 74.609375 -47.890625 Z M 74.609375 -47.890625 "/></g></g></g><g fill="#00ffff" fill-opacity="1"><g transform="translate(332.678005, 434.31958)"><g><path d="M 86.171875 -23.21875 L 86.171875 -53.796875 L 61.609375 -4.578125 C 61.453125 -4.085938 61.09375 -3.84375 60.53125 -3.84375 L 45.734375 -3.84375 C 45.085938 -3.84375 44.6875 -4.085938 44.53125 -4.578125 L 18.40625 -55.125 L 18.40625 -1.078125 C 18.40625 -0.359375 17.96875 0 17.09375 0 L 1.203125 0 C 0.398438 0 0 -0.359375 0 -1.078125 L 0 -95.1875 C 0 -95.914062 0.398438 -96.28125 1.203125 -96.28125 L 17.328125 -96.28125 C 17.972656 -96.28125 18.375 -96.035156 18.53125 -95.546875 L 53.078125 -25.03125 L 85.921875 -95.546875 C 86.242188 -96.035156 86.6875 -96.28125 87.25 -96.28125 L 103.140625 -96.28125 C 104.015625 -96.28125 104.453125 -95.914062 104.453125 -95.1875 L 104.453125 -23.21875 Z M 86.171875 -23.21875 "/></g></g></g><g fill="#00ffff" fill-opacity="1"><g transform="translate(442.427893, 434.31958)"><g><path d="M 75.578125 -1.4375 C 75.734375 -1.125 75.691406 -0.804688 75.453125 -0.484375 C 75.210938 -0.160156 74.894531 0 74.5 0 L 57.890625 0 C 57.328125 0 56.960938 -0.238281 56.796875 -0.71875 L 37.78125 -54.390625 L 19.015625 -0.71875 C 18.929688 -0.238281 18.53125 0 17.8125 0 L 1.328125 0 C 0.765625 0 0.378906 -0.160156 0.171875 -0.484375 C -0.0234375 -0.804688 -0.0390625 -1.125 0.125 -1.4375 L 36.578125 -95.546875 C 36.742188 -96.035156 37.144531 -96.28125 37.78125 -96.28125 C 38.425781 -96.28125 38.828125 -96.035156 38.984375 -95.546875 Z M 75.578125 -1.4375 "/></g></g></g><g fill="#00ffff" fill-opacity="1"><g transform="translate(521.852175, 434.31958)"><g><path d="M 73.40625 -78.578125 L 55 -78.578125 C 52.664062 -78.660156 49.9375 -78.601562 46.8125 -78.40625 C 43.6875 -78.207031 40.476562 -77.601562 37.1875 -76.59375 C 33.894531 -75.59375 30.820312 -74.007812 27.96875 -71.84375 C 25.125 -69.675781 22.835938 -66.664062 21.109375 -62.8125 C 19.390625 -58.96875 18.53125 -54.078125 18.53125 -48.140625 C 18.53125 -40.515625 20.113281 -34.394531 23.28125 -29.78125 C 26.457031 -25.164062 30.789062 -21.894531 36.28125 -19.96875 C 41.78125 -18.050781 48.019531 -17.25 55 -17.5625 L 55 -41.640625 L 36.46875 -41.640625 L 36.46875 -60.046875 L 73.40625 -60.046875 L 73.40625 -1.078125 C 73.40625 -0.359375 72.960938 0 72.078125 0 L 56.4375 0 C 51.707031 0 46.753906 -0.316406 41.578125 -0.953125 C 36.398438 -1.597656 31.34375 -2.84375 26.40625 -4.6875 C 21.476562 -6.539062 17.023438 -9.226562 13.046875 -12.75 C 9.078125 -16.28125 5.910156 -20.929688 3.546875 -26.703125 C 1.179688 -32.484375 0 -39.628906 0 -48.140625 C 0 -56.398438 1.160156 -63.359375 3.484375 -69.015625 C 5.816406 -74.671875 8.96875 -79.285156 12.9375 -82.859375 C 16.90625 -86.429688 21.335938 -89.195312 26.234375 -91.15625 C 31.128906 -93.125 36.179688 -94.46875 41.390625 -95.1875 C 46.609375 -95.914062 51.625 -96.28125 56.4375 -96.28125 L 72.078125 -96.28125 C 72.960938 -96.28125 73.40625 -95.914062 73.40625 -95.1875 Z M 73.40625 -78.578125 "/></g></g></g><g fill="#00ffff" fill-opacity="1"><g transform="translate(598.989974, 434.31958)"><g><path d="M 39.234375 -16.484375 C 40.117188 -16.484375 40.5625 -16.125 40.5625 -15.40625 L 40.5625 -1.078125 C 40.5625 -0.359375 40.117188 0 39.234375 0 L 1.328125 0 C 0.441406 0 0 -0.359375 0 -1.078125 L 0 -15.40625 C 0 -16.125 0.441406 -16.484375 1.328125 -16.484375 L 11.1875 -16.484375 L 11.1875 -96.28125 L 29.609375 -96.28125 L 29.609375 -16.484375 Z M 39.234375 -16.484375 "/></g></g></g><g fill="#00ffff" fill-opacity="1"><g transform="translate(641.590237, 434.31958)"><g><path d="M 76.78125 -1.8125 C 77.175781 -1.320312 77.253906 -0.894531 77.015625 -0.53125 C 76.773438 -0.175781 76.335938 0 75.703125 0 L 55 0 C 54.519531 0 54.15625 -0.117188 53.90625 -0.359375 L 25.875 -35.015625 C 25.46875 -34.617188 24.5625 -33.632812 23.15625 -32.0625 C 21.757812 -30.5 20.078125 -28.613281 18.109375 -26.40625 C 16.140625 -24.207031 14.113281 -21.921875 12.03125 -19.546875 C 9.945312 -17.179688 7.984375 -14.957031 6.140625 -12.875 C 4.296875 -10.789062 2.8125 -9.101562 1.6875 -7.8125 C 0.5625 -6.53125 0 -5.890625 0 -5.890625 L 0 -95.1875 C 0 -95.914062 0.441406 -96.28125 1.328125 -96.28125 L 17.203125 -96.28125 C 18.003906 -96.28125 18.40625 -95.914062 18.40625 -95.1875 L 18.40625 -51.390625 L 54.640625 -95.90625 C 54.878906 -96.15625 55.238281 -96.28125 55.71875 -96.28125 L 75.328125 -96.28125 C 75.972656 -96.28125 76.414062 -96.078125 76.65625 -95.671875 C 76.894531 -95.273438 76.816406 -94.875 76.421875 -94.46875 L 38.15625 -47.296875 Z M 76.78125 -1.8125 "/></g></g></g><g fill="#000000" fill-opacity="1"><g transform="translate(23.419542, 434.249999)"><g><path d="M 75.578125 -1.4375 C 75.734375 -1.125 75.691406 -0.804688 75.453125 -0.484375 C 75.210938 -0.160156 74.894531 0 74.5 0 L 57.890625 0 C 57.328125 0 56.960938 -0.238281 56.796875 -0.71875 L 37.78125 -54.390625 L 19.015625 -0.71875 C 18.929688 -0.238281 18.53125 0 17.8125 0 L 1.328125 0 C 0.765625 0 0.378906 -0.160156 0.171875 -0.484375 C -0.0234375 -0.804688 -0.0390625 -1.125 0.125 -1.4375 L 36.578125 -95.546875 C 36.742188 -96.035156 37.144531 -96.28125 37.78125 -96.28125 C 38.425781 -96.28125 38.828125 -96.035156 38.984375 -95.546875 Z M 75.578125 -1.4375 "/></g></g></g><g fill="#000000" fill-opacity="1"><g transform="translate(102.843813, 434.249999)"><g><path d="M 71 -96.28125 C 71.800781 -96.28125 72.203125 -95.914062 72.203125 -95.1875 L 72.203125 -32.125 C 72.203125 -25.382812 70.617188 -19.609375 67.453125 -14.796875 C 64.285156 -9.984375 59.972656 -6.3125 54.515625 -3.78125 C 49.054688 -1.257812 42.921875 0 36.109375 0 C 29.523438 0 23.484375 -1.300781 17.984375 -3.90625 C 12.492188 -6.519531 8.125 -10.234375 4.875 -15.046875 C 1.625 -19.859375 0 -25.550781 0 -32.125 L 0 -78.828125 L 18.171875 -78.828125 L 18.171875 -32.25 C 18.734375 -27.519531 20.757812 -23.910156 24.25 -21.421875 C 27.738281 -18.929688 31.691406 -17.6875 36.109375 -17.6875 C 39.148438 -17.6875 42.035156 -18.207031 44.765625 -19.25 C 47.492188 -20.289062 49.71875 -21.894531 51.4375 -24.0625 C 53.164062 -26.226562 54.03125 -28.914062 54.03125 -32.125 L 54.03125 -95.1875 C 54.03125 -95.914062 54.472656 -96.28125 55.359375 -96.28125 Z M 71 -96.28125 "/></g></g></g><g fill="#000000" fill-opacity="1"><g transform="translate(178.657885, 434.249999)"><g><path d="M 19.859375 -61.375 L 38.15625 -61.375 L 38.15625 -1.078125 C 38.15625 -0.359375 37.671875 0 36.703125 0 L 21.1875 0 C 20.300781 0 19.859375 -0.359375 19.859375 -1.078125 Z M 1.328125 -79.78125 C 0.441406 -79.78125 0 -80.144531 0 -80.875 L 0 -95.1875 C 0 -95.914062 0.441406 -96.28125 1.328125 -96.28125 L 56.5625 -96.28125 C 57.445312 -96.28125 57.890625 -95.914062 57.890625 -95.1875 L 57.890625 -80.875 C 57.890625 -80.144531 57.445312 -79.78125 56.5625 -79.78125 Z M 1.328125 -79.78125 "/></g></g></g><g fill="#000000" fill-opacity="1"><g transform="translate(239.429488, 434.249999)"><g><path d="M 55.359375 -47.890625 C 55.359375 -45.410156 54.492188 -43.285156 52.765625 -41.515625 C 51.046875 -39.753906 48.898438 -38.875 46.328125 -38.875 C 43.847656 -38.875 41.722656 -39.753906 39.953125 -41.515625 C 38.191406 -43.285156 37.3125 -45.410156 37.3125 -47.890625 C 37.3125 -50.460938 38.191406 -52.628906 39.953125 -54.390625 C 41.722656 -56.160156 43.847656 -57.046875 46.328125 -57.046875 C 48.898438 -57.046875 51.046875 -56.160156 52.765625 -54.390625 C 54.492188 -52.628906 55.359375 -50.460938 55.359375 -47.890625 Z M 92.671875 -48.265625 C 92.671875 -42.242188 91.707031 -36.363281 89.78125 -30.625 C 87.851562 -24.882812 84.960938 -19.707031 81.109375 -15.09375 C 77.253906 -10.488281 72.4375 -6.820312 66.65625 -4.09375 C 60.882812 -1.363281 54.148438 0 46.453125 0 C 38.671875 0 31.867188 -1.363281 26.046875 -4.09375 C 20.234375 -6.820312 15.398438 -10.488281 11.546875 -15.09375 C 7.703125 -19.707031 4.816406 -24.882812 2.890625 -30.625 C 0.960938 -36.363281 0 -42.242188 0 -48.265625 C 0 -54.273438 0.960938 -60.128906 2.890625 -65.828125 C 4.816406 -71.523438 7.703125 -76.660156 11.546875 -81.234375 C 15.398438 -85.804688 20.234375 -89.457031 26.046875 -92.1875 C 31.867188 -94.914062 38.671875 -96.28125 46.453125 -96.28125 C 54.148438 -96.28125 60.882812 -94.914062 66.65625 -92.1875 C 72.4375 -89.457031 77.253906 -85.804688 81.109375 -81.234375 C 84.960938 -76.660156 87.851562 -71.523438 89.78125 -65.828125 C 91.707031 -60.128906 92.671875 -54.273438 92.671875 -48.265625 Z M 74.609375 -47.890625 C 74.609375 -51.828125 74.003906 -55.660156 72.796875 -59.390625 C 71.597656 -63.117188 69.832031 -66.488281 67.5 -69.5 C 65.175781 -72.507812 62.25 -74.894531 58.71875 -76.65625 C 55.195312 -78.425781 51.109375 -79.3125 46.453125 -79.3125 C 41.722656 -79.3125 37.59375 -78.425781 34.0625 -76.65625 C 30.53125 -74.894531 27.578125 -72.507812 25.203125 -69.5 C 22.835938 -66.488281 21.070312 -63.117188 19.90625 -59.390625 C 18.75 -55.660156 18.171875 -51.828125 18.171875 -47.890625 C 18.171875 -44.046875 18.75 -40.273438 19.90625 -36.578125 C 21.070312 -32.890625 22.835938 -29.5625 25.203125 -26.59375 C 27.578125 -23.625 30.53125 -21.253906 34.0625 -19.484375 C 37.59375 -17.722656 41.722656 -16.84375 46.453125 -16.84375 C 51.109375 -16.84375 55.195312 -17.722656 58.71875 -19.484375 C 62.25 -21.253906 65.175781 -23.625 67.5 -26.59375 C 69.832031 -29.5625 71.597656 -32.890625 72.796875 -36.578125 C 74.003906 -40.273438 74.609375 -44.046875 74.609375 -47.890625 Z M 74.609375 -47.890625 "/></g></g></g><g fill="#000000" fill-opacity="1"><g transform="translate(336.66405, 434.249999)"><g><path d="M 86.171875 -23.21875 L 86.171875 -53.796875 L 61.609375 -4.578125 C 61.453125 -4.085938 61.09375 -3.84375 60.53125 -3.84375 L 45.734375 -3.84375 C 45.085938 -3.84375 44.6875 -4.085938 44.53125 -4.578125 L 18.40625 -55.125 L 18.40625 -1.078125 C 18.40625 -0.359375 17.96875 0 17.09375 0 L 1.203125 0 C 0.398438 0 0 -0.359375 0 -1.078125 L 0 -95.1875 C 0 -95.914062 0.398438 -96.28125 1.203125 -96.28125 L 17.328125 -96.28125 C 17.972656 -96.28125 18.375 -96.035156 18.53125 -95.546875 L 53.078125 -25.03125 L 85.921875 -95.546875 C 86.242188 -96.035156 86.6875 -96.28125 87.25 -96.28125 L 103.140625 -96.28125 C 104.015625 -96.28125 104.453125 -95.914062 104.453125 -95.1875 L 104.453125 -23.21875 Z M 86.171875 -23.21875 "/></g></g></g><g fill="#000000" fill-opacity="1"><g transform="translate(446.413938, 434.249999)"><g><path d="M 75.578125 -1.4375 C 75.734375 -1.125 75.691406 -0.804688 75.453125 -0.484375 C 75.210938 -0.160156 74.894531 0 74.5 0 L 57.890625 0 C 57.328125 0 56.960938 -0.238281 56.796875 -0.71875 L 37.78125 -54.390625 L 19.015625 -0.71875 C 18.929688 -0.238281 18.53125 0 17.8125 0 L 1.328125 0 C 0.765625 0 0.378906 -0.160156 0.171875 -0.484375 C -0.0234375 -0.804688 -0.0390625 -1.125 0.125 -1.4375 L 36.578125 -95.546875 C 36.742188 -96.035156 37.144531 -96.28125 37.78125 -96.28125 C 38.425781 -96.28125 38.828125 -96.035156 38.984375 -95.546875 Z M 75.578125 -1.4375 "/></g></g></g><g fill="#000000" fill-opacity="1"><g transform="translate(525.83822, 434.249999)"><g><path d="M 73.40625 -78.578125 L 55 -78.578125 C 52.664062 -78.660156 49.9375 -78.601562 46.8125 -78.40625 C 43.6875 -78.207031 40.476562 -77.601562 37.1875 -76.59375 C 33.894531 -75.59375 30.820312 -74.007812 27.96875 -71.84375 C 25.125 -69.675781 22.835938 -66.664062 21.109375 -62.8125 C 19.390625 -58.96875 18.53125 -54.078125 18.53125 -48.140625 C 18.53125 -40.515625 20.113281 -34.394531 23.28125 -29.78125 C 26.457031 -25.164062 30.789062 -21.894531 36.28125 -19.96875 C 41.78125 -18.050781 48.019531 -17.25 55 -17.5625 L 55 -41.640625 L 36.46875 -41.640625 L 36.46875 -60.046875 L 73.40625 -60.046875 L 73.40625 -1.078125 C 73.40625 -0.359375 72.960938 0 72.078125 0 L 56.4375 0 C 51.707031 0 46.753906 -0.316406 41.578125 -0.953125 C 36.398438 -1.597656 31.34375 -2.84375 26.40625 -4.6875 C 21.476562 -6.539062 17.023438 -9.226562 13.046875 -12.75 C 9.078125 -16.28125 5.910156 -20.929688 3.546875 -26.703125 C 1.179688 -32.484375 0 -39.628906 0 -48.140625 C 0 -56.398438 1.160156 -63.359375 3.484375 -69.015625 C 5.816406 -74.671875 8.96875 -79.285156 12.9375 -82.859375 C 16.90625 -86.429688 21.335938 -89.195312 26.234375 -91.15625 C 31.128906 -93.125 36.179688 -94.46875 41.390625 -95.1875 C 46.609375 -95.914062 51.625 -96.28125 56.4375 -96.28125 L 72.078125 -96.28125 C 72.960938 -96.28125 73.40625 -95.914062 73.40625 -95.1875 Z M 73.40625 -78.578125 "/></g></g></g><g fill="#000000" fill-opacity="1"><g transform="translate(602.976018, 434.249999)"><g><path d="M 39.234375 -16.484375 C 40.117188 -16.484375 40.5625 -16.125 40.5625 -15.40625 L 40.5625 -1.078125 C 40.5625 -0.359375 40.117188 0 39.234375 0 L 1.328125 0 C 0.441406 0 0 -0.359375 0 -1.078125 L 0 -15.40625 C 0 -16.125 0.441406 -16.484375 1.328125 -16.484375 L 11.1875 -16.484375 L 11.1875 -96.28125 L 29.609375 -96.28125 L 29.609375 -16.484375 Z M 39.234375 -16.484375 "/></g></g></g><g fill="#000000" fill-opacity="1"><g transform="translate(645.576282, 434.249999)"><g><path d="M 76.78125 -1.8125 C 77.175781 -1.320312 77.253906 -0.894531 77.015625 -0.53125 C 76.773438 -0.175781 76.335938 0 75.703125 0 L 55 0 C 54.519531 0 54.15625 -0.117188 53.90625 -0.359375 L 25.875 -35.015625 C 25.46875 -34.617188 24.5625 -33.632812 23.15625 -32.0625 C 21.757812 -30.5 20.078125 -28.613281 18.109375 -26.40625 C 16.140625 -24.207031 14.113281 -21.921875 12.03125 -19.546875 C 9.945312 -17.179688 7.984375 -14.957031 6.140625 -12.875 C 4.296875 -10.789062 2.8125 -9.101562 1.6875 -7.8125 C 0.5625 -6.53125 0 -5.890625 0 -5.890625 L 0 -95.1875 C 0 -95.914062 0.441406 -96.28125 1.328125 -96.28125 L 17.203125 -96.28125 C 18.003906 -96.28125 18.40625 -95.914062 18.40625 -95.1875 L 18.40625 -51.390625 L 54.640625 -95.90625 C 54.878906 -96.15625 55.238281 -96.28125 55.71875 -96.28125 L 75.328125 -96.28125 C 75.972656 -96.28125 76.414062 -96.078125 76.65625 -95.671875 C 76.894531 -95.273438 76.816406 -94.875 76.421875 -94.46875 L 38.15625 -47.296875 Z M 76.78125 -1.8125 "/></g></g></g></svg>