<?xml version="1.0" encoding="utf-8" standalone="no"?>
<!DOCTYPE svg PUBLIC "-//W3C//DTD SVG 1.1//EN"
  "http://www.w3.org/Graphics/SVG/1.1/DTD/svg11.dtd">
<svg xmlns:xlink="http://www.w3.org/1999/xlink" width="460.8pt" height="345.6pt" viewBox="0 0 460.8 345.6" xmlns="http://www.w3.org/2000/svg" version="1.1">
 <metadata>
  <rdf:RDF xmlns:dc="http://purl.org/dc/elements/1.1/" xmlns:cc="http://creativecommons.org/ns#" xmlns:rdf="http://www.w3.org/1999/02/22-rdf-syntax-ns#">
   <cc:Work>
    <dc:type rdf:resource="http://purl.org/dc/dcmitype/StillImage"/>
    <dc:date>2023-01-22T23:37:22.354043</dc:date>
    <dc:format>image/svg+xml</dc:format>
    <dc:creator>
     <cc:Agent>
      <dc:title>Matplotlib v3.6.3, https://matplotlib.org/</dc:title>
     </cc:Agent>
    </dc:creator>
   </cc:Work>
  </rdf:RDF>
 </metadata>
 <defs>
  <style type="text/css">*{stroke-linejoin: round; stroke-linecap: butt}</style>
 </defs>
 <g id="figure_1">
  <g id="patch_1">
   <path d="M 0 345.6 
L 460.8 345.6 
L 460.8 0 
L 0 0 
z
" style="fill: #ffffff"/>
  </g>
  <g id="axes_1">
   <g id="patch_2">
    <path d="M 57.6 307.584 
L 414.72 307.584 
L 414.72 41.472 
L 57.6 41.472 
z
" style="fill: #ffffff"/>
   </g>
   <g id="matplotlib.axis_1">
    <g id="xtick_1">
     <g id="line2d_1">
      <defs>
       <path id="mba5df3e4d1" d="M 0 0 
L 0 3.5 
" style="stroke: #000000; stroke-width: 0.8"/>
      </defs>
      <g>
       <use xlink:href="#mba5df3e4d1" x="73.832727" y="307.584" style="stroke: #000000; stroke-width: 0.8"/>
      </g>
     </g>
     <g id="text_1">
      <!-- 0 -->
      <g transform="translate(70.651477 322.182437) scale(0.1 -0.1)">
       <defs>
        <path id="DejaVuSans-30" d="M 2034 4250 
Q 1547 4250 1301 3770 
Q 1056 3291 1056 2328 
Q 1056 1369 1301 889 
Q 1547 409 2034 409 
Q 2525 409 2770 889 
Q 3016 1369 3016 2328 
Q 3016 3291 2770 3770 
Q 2525 4250 2034 4250 
z
M 2034 4750 
Q 2819 4750 3233 4129 
Q 3647 3509 3647 2328 
Q 3647 1150 3233 529 
Q 2819 -91 2034 -91 
Q 1250 -91 836 529 
Q 422 1150 422 2328 
Q 422 3509 836 4129 
Q 1250 4750 2034 4750 
z
" transform="scale(0.015625)"/>
       </defs>
       <use xlink:href="#DejaVuSans-30"/>
      </g>
     </g>
    </g>
    <g id="xtick_2">
     <g id="line2d_2">
      <g>
       <use xlink:href="#mba5df3e4d1" x="122.28863" y="307.584" style="stroke: #000000; stroke-width: 0.8"/>
      </g>
     </g>
     <g id="text_2">
      <!-- 50 -->
      <g transform="translate(115.92613 322.182437) scale(0.1 -0.1)">
       <defs>
        <path id="DejaVuSans-35" d="M 691 4666 
L 3169 4666 
L 3169 4134 
L 1269 4134 
L 1269 2991 
Q 1406 3038 1543 3061 
Q 1681 3084 1819 3084 
Q 2600 3084 3056 2656 
Q 3513 2228 3513 1497 
Q 3513 744 3044 326 
Q 2575 -91 1722 -91 
Q 1428 -91 1123 -41 
Q 819 9 494 109 
L 494 744 
Q 775 591 1075 516 
Q 1375 441 1709 441 
Q 2250 441 2565 725 
Q 2881 1009 2881 1497 
Q 2881 1984 2565 2268 
Q 2250 2553 1709 2553 
Q 1456 2553 1204 2497 
Q 953 2441 691 2322 
L 691 4666 
z
" transform="scale(0.015625)"/>
       </defs>
       <use xlink:href="#DejaVuSans-35"/>
       <use xlink:href="#DejaVuSans-30" x="63.623047"/>
      </g>
     </g>
    </g>
    <g id="xtick_3">
     <g id="line2d_3">
      <g>
       <use xlink:href="#mba5df3e4d1" x="170.744532" y="307.584" style="stroke: #000000; stroke-width: 0.8"/>
      </g>
     </g>
     <g id="text_3">
      <!-- 100 -->
      <g transform="translate(161.200782 322.182437) scale(0.1 -0.1)">
       <defs>
        <path id="DejaVuSans-31" d="M 794 531 
L 1825 531 
L 1825 4091 
L 703 3866 
L 703 4441 
L 1819 4666 
L 2450 4666 
L 2450 531 
L 3481 531 
L 3481 0 
L 794 0 
L 794 531 
z
" transform="scale(0.015625)"/>
       </defs>
       <use xlink:href="#DejaVuSans-31"/>
       <use xlink:href="#DejaVuSans-30" x="63.623047"/>
       <use xlink:href="#DejaVuSans-30" x="127.246094"/>
      </g>
     </g>
    </g>
    <g id="xtick_4">
     <g id="line2d_4">
      <g>
       <use xlink:href="#mba5df3e4d1" x="219.200434" y="307.584" style="stroke: #000000; stroke-width: 0.8"/>
      </g>
     </g>
     <g id="text_4">
      <!-- 150 -->
      <g transform="translate(209.656684 322.182437) scale(0.1 -0.1)">
       <use xlink:href="#DejaVuSans-31"/>
       <use xlink:href="#DejaVuSans-35" x="63.623047"/>
       <use xlink:href="#DejaVuSans-30" x="127.246094"/>
      </g>
     </g>
    </g>
    <g id="xtick_5">
     <g id="line2d_5">
      <g>
       <use xlink:href="#mba5df3e4d1" x="267.656336" y="307.584" style="stroke: #000000; stroke-width: 0.8"/>
      </g>
     </g>
     <g id="text_5">
      <!-- 200 -->
      <g transform="translate(258.112586 322.182437) scale(0.1 -0.1)">
       <defs>
        <path id="DejaVuSans-32" d="M 1228 531 
L 3431 531 
L 3431 0 
L 469 0 
L 469 531 
Q 828 903 1448 1529 
Q 2069 2156 2228 2338 
Q 2531 2678 2651 2914 
Q 2772 3150 2772 3378 
Q 2772 3750 2511 3984 
Q 2250 4219 1831 4219 
Q 1534 4219 1204 4116 
Q 875 4013 500 3803 
L 500 4441 
Q 881 4594 1212 4672 
Q 1544 4750 1819 4750 
Q 2544 4750 2975 4387 
Q 3406 4025 3406 3419 
Q 3406 3131 3298 2873 
Q 3191 2616 2906 2266 
Q 2828 2175 2409 1742 
Q 1991 1309 1228 531 
z
" transform="scale(0.015625)"/>
       </defs>
       <use xlink:href="#DejaVuSans-32"/>
       <use xlink:href="#DejaVuSans-30" x="63.623047"/>
       <use xlink:href="#DejaVuSans-30" x="127.246094"/>
      </g>
     </g>
    </g>
    <g id="xtick_6">
     <g id="line2d_6">
      <g>
       <use xlink:href="#mba5df3e4d1" x="316.112239" y="307.584" style="stroke: #000000; stroke-width: 0.8"/>
      </g>
     </g>
     <g id="text_6">
      <!-- 250 -->
      <g transform="translate(306.568489 322.182437) scale(0.1 -0.1)">
       <use xlink:href="#DejaVuSans-32"/>
       <use xlink:href="#DejaVuSans-35" x="63.623047"/>
       <use xlink:href="#DejaVuSans-30" x="127.246094"/>
      </g>
     </g>
    </g>
    <g id="xtick_7">
     <g id="line2d_7">
      <g>
       <use xlink:href="#mba5df3e4d1" x="364.568141" y="307.584" style="stroke: #000000; stroke-width: 0.8"/>
      </g>
     </g>
     <g id="text_7">
      <!-- 300 -->
      <g transform="translate(355.024391 322.182437) scale(0.1 -0.1)">
       <defs>
        <path id="DejaVuSans-33" d="M 2597 2516 
Q 3050 2419 3304 2112 
Q 3559 1806 3559 1356 
Q 3559 666 3084 287 
Q 2609 -91 1734 -91 
Q 1441 -91 1130 -33 
Q 819 25 488 141 
L 488 750 
Q 750 597 1062 519 
Q 1375 441 1716 441 
Q 2309 441 2620 675 
Q 2931 909 2931 1356 
Q 2931 1769 2642 2001 
Q 2353 2234 1838 2234 
L 1294 2234 
L 1294 2753 
L 1863 2753 
Q 2328 2753 2575 2939 
Q 2822 3125 2822 3475 
Q 2822 3834 2567 4026 
Q 2313 4219 1838 4219 
Q 1578 4219 1281 4162 
Q 984 4106 628 3988 
L 628 4550 
Q 988 4650 1302 4700 
Q 1616 4750 1894 4750 
Q 2613 4750 3031 4423 
Q 3450 4097 3450 3541 
Q 3450 3153 3228 2886 
Q 3006 2619 2597 2516 
z
" transform="scale(0.015625)"/>
       </defs>
       <use xlink:href="#DejaVuSans-33"/>
       <use xlink:href="#DejaVuSans-30" x="63.623047"/>
       <use xlink:href="#DejaVuSans-30" x="127.246094"/>
      </g>
     </g>
    </g>
    <g id="xtick_8">
     <g id="line2d_8">
      <g>
       <use xlink:href="#mba5df3e4d1" x="413.024043" y="307.584" style="stroke: #000000; stroke-width: 0.8"/>
      </g>
     </g>
     <g id="text_8">
      <!-- 350 -->
      <g transform="translate(403.480293 322.182437) scale(0.1 -0.1)">
       <use xlink:href="#DejaVuSans-33"/>
       <use xlink:href="#DejaVuSans-35" x="63.623047"/>
       <use xlink:href="#DejaVuSans-30" x="127.246094"/>
      </g>
     </g>
    </g>
   </g>
   <g id="matplotlib.axis_2">
    <g id="ytick_1">
     <g id="line2d_9">
      <defs>
       <path id="mb1870e43ea" d="M 0 0 
L -3.5 0 
" style="stroke: #000000; stroke-width: 0.8"/>
      </defs>
      <g>
       <use xlink:href="#mb1870e43ea" x="57.6" y="295.488" style="stroke: #000000; stroke-width: 0.8"/>
      </g>
     </g>
     <g id="text_9">
      <!-- −1.00 -->
      <g transform="translate(19.954687 299.287219) scale(0.1 -0.1)">
       <defs>
        <path id="DejaVuSans-2212" d="M 678 2272 
L 4684 2272 
L 4684 1741 
L 678 1741 
L 678 2272 
z
" transform="scale(0.015625)"/>
        <path id="DejaVuSans-2e" d="M 684 794 
L 1344 794 
L 1344 0 
L 684 0 
L 684 794 
z
" transform="scale(0.015625)"/>
       </defs>
       <use xlink:href="#DejaVuSans-2212"/>
       <use xlink:href="#DejaVuSans-31" x="83.789062"/>
       <use xlink:href="#DejaVuSans-2e" x="147.412109"/>
       <use xlink:href="#DejaVuSans-30" x="179.199219"/>
       <use xlink:href="#DejaVuSans-30" x="242.822266"/>
      </g>
     </g>
    </g>
    <g id="ytick_2">
     <g id="line2d_10">
      <g>
       <use xlink:href="#mb1870e43ea" x="57.6" y="265.248" style="stroke: #000000; stroke-width: 0.8"/>
      </g>
     </g>
     <g id="text_10">
      <!-- −0.75 -->
      <g transform="translate(19.954687 269.047219) scale(0.1 -0.1)">
       <defs>
        <path id="DejaVuSans-37" d="M 525 4666 
L 3525 4666 
L 3525 4397 
L 1831 0 
L 1172 0 
L 2766 4134 
L 525 4134 
L 525 4666 
z
" transform="scale(0.015625)"/>
       </defs>
       <use xlink:href="#DejaVuSans-2212"/>
       <use xlink:href="#DejaVuSans-30" x="83.789062"/>
       <use xlink:href="#DejaVuSans-2e" x="147.412109"/>
       <use xlink:href="#DejaVuSans-37" x="179.199219"/>
       <use xlink:href="#DejaVuSans-35" x="242.822266"/>
      </g>
     </g>
    </g>
    <g id="ytick_3">
     <g id="line2d_11">
      <g>
       <use xlink:href="#mb1870e43ea" x="57.6" y="235.008" style="stroke: #000000; stroke-width: 0.8"/>
      </g>
     </g>
     <g id="text_11">
      <!-- −0.50 -->
      <g transform="translate(19.954687 238.807219) scale(0.1 -0.1)">
       <use xlink:href="#DejaVuSans-2212"/>
       <use xlink:href="#DejaVuSans-30" x="83.789062"/>
       <use xlink:href="#DejaVuSans-2e" x="147.412109"/>
       <use xlink:href="#DejaVuSans-35" x="179.199219"/>
       <use xlink:href="#DejaVuSans-30" x="242.822266"/>
      </g>
     </g>
    </g>
    <g id="ytick_4">
     <g id="line2d_12">
      <g>
       <use xlink:href="#mb1870e43ea" x="57.6" y="204.768" style="stroke: #000000; stroke-width: 0.8"/>
      </g>
     </g>
     <g id="text_12">
      <!-- −0.25 -->
      <g transform="translate(19.954687 208.567219) scale(0.1 -0.1)">
       <use xlink:href="#DejaVuSans-2212"/>
       <use xlink:href="#DejaVuSans-30" x="83.789062"/>
       <use xlink:href="#DejaVuSans-2e" x="147.412109"/>
       <use xlink:href="#DejaVuSans-32" x="179.199219"/>
       <use xlink:href="#DejaVuSans-35" x="242.822266"/>
      </g>
     </g>
    </g>
    <g id="ytick_5">
     <g id="line2d_13">
      <g>
       <use xlink:href="#mb1870e43ea" x="57.6" y="174.528" style="stroke: #000000; stroke-width: 0.8"/>
      </g>
     </g>
     <g id="text_13">
      <!-- 0.00 -->
      <g transform="translate(28.334375 178.327219) scale(0.1 -0.1)">
       <use xlink:href="#DejaVuSans-30"/>
       <use xlink:href="#DejaVuSans-2e" x="63.623047"/>
       <use xlink:href="#DejaVuSans-30" x="95.410156"/>
       <use xlink:href="#DejaVuSans-30" x="159.033203"/>
      </g>
     </g>
    </g>
    <g id="ytick_6">
     <g id="line2d_14">
      <g>
       <use xlink:href="#mb1870e43ea" x="57.6" y="144.288" style="stroke: #000000; stroke-width: 0.8"/>
      </g>
     </g>
     <g id="text_14">
      <!-- 0.25 -->
      <g transform="translate(28.334375 148.087219) scale(0.1 -0.1)">
       <use xlink:href="#DejaVuSans-30"/>
       <use xlink:href="#DejaVuSans-2e" x="63.623047"/>
       <use xlink:href="#DejaVuSans-32" x="95.410156"/>
       <use xlink:href="#DejaVuSans-35" x="159.033203"/>
      </g>
     </g>
    </g>
    <g id="ytick_7">
     <g id="line2d_15">
      <g>
       <use xlink:href="#mb1870e43ea" x="57.6" y="114.048" style="stroke: #000000; stroke-width: 0.8"/>
      </g>
     </g>
     <g id="text_15">
      <!-- 0.50 -->
      <g transform="translate(28.334375 117.847219) scale(0.1 -0.1)">
       <use xlink:href="#DejaVuSans-30"/>
       <use xlink:href="#DejaVuSans-2e" x="63.623047"/>
       <use xlink:href="#DejaVuSans-35" x="95.410156"/>
       <use xlink:href="#DejaVuSans-30" x="159.033203"/>
      </g>
     </g>
    </g>
    <g id="ytick_8">
     <g id="line2d_16">
      <g>
       <use xlink:href="#mb1870e43ea" x="57.6" y="83.808" style="stroke: #000000; stroke-width: 0.8"/>
      </g>
     </g>
     <g id="text_16">
      <!-- 0.75 -->
      <g transform="translate(28.334375 87.607219) scale(0.1 -0.1)">
       <use xlink:href="#DejaVuSans-30"/>
       <use xlink:href="#DejaVuSans-2e" x="63.623047"/>
       <use xlink:href="#DejaVuSans-37" x="95.410156"/>
       <use xlink:href="#DejaVuSans-35" x="159.033203"/>
      </g>
     </g>
    </g>
    <g id="ytick_9">
     <g id="line2d_17">
      <g>
       <use xlink:href="#mb1870e43ea" x="57.6" y="53.568" style="stroke: #000000; stroke-width: 0.8"/>
      </g>
     </g>
     <g id="text_17">
      <!-- 1.00 -->
      <g transform="translate(28.334375 57.367219) scale(0.1 -0.1)">
       <use xlink:href="#DejaVuSans-31"/>
       <use xlink:href="#DejaVuSans-2e" x="63.623047"/>
       <use xlink:href="#DejaVuSans-30" x="95.410156"/>
       <use xlink:href="#DejaVuSans-30" x="159.033203"/>
      </g>
     </g>
    </g>
   </g>
   <g id="line2d_18">
    <path d="M 73.832727 99.110674 
L 76.740081 88.996364 
L 79.647436 79.957664 
L 81.585672 74.586158 
L 83.523908 69.773567 
L 85.462144 65.546806 
L 87.40038 61.929511 
L 89.338616 58.941913 
L 91.276852 56.60072 
L 92.24597 55.676759 
L 93.215088 54.919023 
L 94.184206 54.328571 
L 95.153324 53.906229 
L 96.122442 53.652587 
L 97.09156 53.568 
L 98.060678 53.652587 
L 99.029796 53.906229 
L 99.998915 54.328571 
L 100.968033 54.919023 
L 101.937151 55.676759 
L 102.906269 56.60072 
L 104.844505 58.941913 
L 106.782741 61.929511 
L 108.720977 65.546806 
L 110.659213 69.773567 
L 112.597449 74.586158 
L 114.535685 79.957664 
L 116.473921 85.858046 
L 119.381275 95.627315 
L 122.28863 106.388806 
L 125.195984 118.007187 
L 129.072456 134.577445 
L 133.918046 156.499847 
L 146.516581 214.478555 
L 150.393053 231.048813 
L 153.300407 242.667194 
L 156.207761 253.428685 
L 159.115115 263.197954 
L 161.053351 269.098336 
L 162.991588 274.469842 
L 164.929824 279.282433 
L 166.86806 283.509194 
L 168.806296 287.126489 
L 170.744532 290.114087 
L 172.682768 292.45528 
L 173.651886 293.379241 
L 174.621004 294.136977 
L 175.590122 294.727429 
L 176.55924 295.149771 
L 177.528358 295.403413 
L 178.497476 295.488 
L 179.466594 295.403413 
L 180.435712 295.149771 
L 181.40483 294.727429 
L 182.373948 294.136977 
L 183.343066 293.379241 
L 184.312185 292.45528 
L 186.250421 290.114087 
L 188.188657 287.126489 
L 190.126893 283.509194 
L 192.065129 279.282433 
L 194.003365 274.469842 
L 195.941601 269.098336 
L 197.879837 263.197954 
L 200.787191 253.428685 
L 203.694545 242.667194 
L 206.6019 231.048813 
L 210.478372 214.478555 
L 215.323962 192.556153 
L 227.922497 134.577445 
L 231.798969 118.007187 
L 234.706323 106.388806 
L 237.613677 95.627315 
L 240.521031 85.858046 
L 242.459267 79.957664 
L 244.397503 74.586158 
L 246.335739 69.773567 
L 248.273976 65.546806 
L 250.212212 61.929511 
L 252.150448 58.941913 
L 254.088684 56.60072 
L 255.057802 55.676759 
L 256.02692 54.919023 
L 256.996038 54.328571 
L 257.965156 53.906229 
L 258.934274 53.652587 
L 259.903392 53.568 
L 260.87251 53.652587 
L 261.841628 53.906229 
L 262.810746 54.328571 
L 263.779864 54.919023 
L 264.748982 55.676759 
L 265.7181 56.60072 
L 267.656336 58.941913 
L 269.594573 61.929511 
L 271.532809 65.546806 
L 273.471045 69.773567 
L 275.409281 74.586158 
L 277.347517 79.957664 
L 279.285753 85.858046 
L 282.193107 95.627315 
L 285.100461 106.388806 
L 288.007815 118.007187 
L 291.884288 134.577445 
L 296.729878 156.499847 
L 309.328412 214.478555 
L 313.204885 231.048813 
L 316.112239 242.667194 
L 319.019593 253.428685 
L 321.926947 263.197954 
L 323.865183 269.098336 
L 325.803419 274.469842 
L 327.741655 279.282433 
L 329.679891 283.509194 
L 331.618128 287.126489 
L 333.556364 290.114087 
L 335.4946 292.45528 
L 336.463718 293.379241 
L 337.432836 294.136977 
L 338.401954 294.727429 
L 339.371072 295.149771 
L 340.34019 295.403413 
L 341.309308 295.488 
L 342.278426 295.403413 
L 343.247544 295.149771 
L 344.216662 294.727429 
L 345.18578 294.136977 
L 346.154898 293.379241 
L 347.124016 292.45528 
L 349.062252 290.114087 
L 351.000488 287.126489 
L 352.938725 283.509194 
L 354.876961 279.282433 
L 356.815197 274.469842 
L 358.753433 269.098336 
L 360.691669 263.197954 
L 363.599023 253.428685 
L 366.506377 242.667194 
L 369.413731 231.048813 
L 373.290204 214.478555 
L 378.135794 192.556153 
L 390.734328 134.577445 
L 394.610801 118.007187 
L 397.518155 106.388806 
L 398.487273 102.69951 
L 398.487273 102.69951 
" clip-path="url(#p9569155d10)" style="fill: none; stroke: #1f77b4; stroke-width: 1.5; stroke-linecap: square"/>
   </g>
   <g id="line2d_19">
    <path d="M 73.832727 269.098336 
L 75.770963 263.197954 
L 78.678318 253.428685 
L 81.585672 242.667194 
L 84.493026 231.048813 
L 88.369498 214.478555 
L 93.215088 192.556153 
L 105.813623 134.577445 
L 109.690095 118.007187 
L 112.597449 106.388806 
L 115.504803 95.627315 
L 118.412157 85.858046 
L 120.350393 79.957664 
L 122.28863 74.586158 
L 124.226866 69.773567 
L 126.165102 65.546806 
L 128.103338 61.929511 
L 130.041574 58.941913 
L 131.97981 56.60072 
L 132.948928 55.676759 
L 133.918046 54.919023 
L 134.887164 54.328571 
L 135.856282 53.906229 
L 136.8254 53.652587 
L 137.794518 53.568 
L 138.763636 53.652587 
L 139.732754 53.906229 
L 140.701872 54.328571 
L 141.670991 54.919023 
L 142.640109 55.676759 
L 143.609227 56.60072 
L 145.547463 58.941913 
L 147.485699 61.929511 
L 149.423935 65.546806 
L 151.362171 69.773567 
L 153.300407 74.586158 
L 155.238643 79.957664 
L 157.176879 85.858046 
L 160.084233 95.627315 
L 162.991588 106.388806 
L 165.898942 118.007187 
L 169.775414 134.577445 
L 174.621004 156.499847 
L 187.219539 214.478555 
L 191.096011 231.048813 
L 194.003365 242.667194 
L 196.910719 253.428685 
L 199.818073 263.197954 
L 201.756309 269.098336 
L 203.694545 274.469842 
L 205.632782 279.282433 
L 207.571018 283.509194 
L 209.509254 287.126489 
L 211.44749 290.114087 
L 213.385726 292.45528 
L 214.354844 293.379241 
L 215.323962 294.136977 
L 216.29308 294.727429 
L 217.262198 295.149771 
L 218.231316 295.403413 
L 219.200434 295.488 
L 220.169552 295.403413 
L 221.13867 295.149771 
L 222.107788 294.727429 
L 223.076906 294.136977 
L 224.046024 293.379241 
L 225.015142 292.45528 
L 226.953379 290.114087 
L 228.891615 287.126489 
L 230.829851 283.509194 
L 232.768087 279.282433 
L 234.706323 274.469842 
L 236.644559 269.098336 
L 238.582795 263.197954 
L 241.490149 253.428685 
L 244.397503 242.667194 
L 247.304858 231.048813 
L 251.18133 214.478555 
L 256.02692 192.556153 
L 268.625455 134.577445 
L 272.501927 118.007187 
L 275.409281 106.388806 
L 278.316635 95.627315 
L 281.223989 85.858046 
L 283.162225 79.957664 
L 285.100461 74.586158 
L 287.038697 69.773567 
L 288.976934 65.546806 
L 290.91517 61.929511 
L 292.853406 58.941913 
L 294.791642 56.60072 
L 295.76076 55.676759 
L 296.729878 54.919023 
L 297.698996 54.328571 
L 298.668114 53.906229 
L 299.637232 53.652587 
L 300.60635 53.568 
L 301.575468 53.652587 
L 302.544586 53.906229 
L 303.513704 54.328571 
L 304.482822 54.919023 
L 305.45194 55.676759 
L 306.421058 56.60072 
L 308.359294 58.941913 
L 310.297531 61.929511 
L 312.235767 65.546806 
L 314.174003 69.773567 
L 316.112239 74.586158 
L 318.050475 79.957664 
L 319.988711 85.858046 
L 322.896065 95.627315 
L 325.803419 106.388806 
L 328.710773 118.007187 
L 332.587246 134.577445 
L 337.432836 156.499847 
L 350.03137 214.478555 
L 353.907843 231.048813 
L 356.815197 242.667194 
L 359.722551 253.428685 
L 362.629905 263.197954 
L 364.568141 269.098336 
L 366.506377 274.469842 
L 368.444613 279.282433 
L 370.382849 283.509194 
L 372.321085 287.126489 
L 374.259322 290.114087 
L 376.197558 292.45528 
L 377.166676 293.379241 
L 378.135794 294.136977 
L 379.104912 294.727429 
L 380.07403 295.149771 
L 381.043148 295.403413 
L 382.012266 295.488 
L 382.981384 295.403413 
L 383.950502 295.149771 
L 384.91962 294.727429 
L 385.888738 294.136977 
L 386.857856 293.379241 
L 387.826974 292.45528 
L 389.76521 290.114087 
L 391.703446 287.126489 
L 393.641682 283.509194 
L 395.579919 279.282433 
L 397.518155 274.469842 
L 398.487273 271.852147 
L 398.487273 271.852147 
" clip-path="url(#p9569155d10)" style="fill: none; stroke: #ff7f0e; stroke-width: 1.5; stroke-linecap: square"/>
   </g>
   <g id="patch_3">
    <path d="M 57.6 307.584 
L 57.6 41.472 
" style="fill: none; stroke: #000000; stroke-width: 0.8; stroke-linejoin: miter; stroke-linecap: square"/>
   </g>
   <g id="patch_4">
    <path d="M 414.72 307.584 
L 414.72 41.472 
" style="fill: none; stroke: #000000; stroke-width: 0.8; stroke-linejoin: miter; stroke-linecap: square"/>
   </g>
   <g id="patch_5">
    <path d="M 57.6 307.584 
L 414.72 307.584 
" style="fill: none; stroke: #000000; stroke-width: 0.8; stroke-linejoin: miter; stroke-linecap: square"/>
   </g>
   <g id="patch_6">
    <path d="M 57.6 41.472 
L 414.72 41.472 
" style="fill: none; stroke: #000000; stroke-width: 0.8; stroke-linejoin: miter; stroke-linecap: square"/>
   </g>
  </g>
 </g>
 <defs>
  <clipPath id="p9569155d10">
   <rect x="57.6" y="41.472" width="357.12" height="266.112"/>
  </clipPath>
 </defs>
</svg>
