<?xml version="1.0" encoding="utf-8" standalone="no"?>
<!DOCTYPE svg PUBLIC "-//W3C//DTD SVG 1.1//EN"
  "http://www.w3.org/Graphics/SVG/1.1/DTD/svg11.dtd">
<svg xmlns:xlink="http://www.w3.org/1999/xlink" width="460.8pt" height="345.6pt" viewBox="0 0 460.8 345.6" xmlns="http://www.w3.org/2000/svg" version="1.1">
 <metadata>
  <rdf:RDF xmlns:dc="http://purl.org/dc/elements/1.1/" xmlns:cc="http://creativecommons.org/ns#" xmlns:rdf="http://www.w3.org/1999/02/22-rdf-syntax-ns#">
   <cc:Work>
    <dc:type rdf:resource="http://purl.org/dc/dcmitype/StillImage"/>
    <dc:date>2023-01-22T23:37:22.300518</dc:date>
    <dc:format>image/svg+xml</dc:format>
    <dc:creator>
     <cc:Agent>
      <dc:title>Matplotlib v3.6.3, https://matplotlib.org/</dc:title>
     </cc:Agent>
    </dc:creator>
   </cc:Work>
  </rdf:RDF>
 </metadata>
 <defs>
  <style type="text/css">*{stroke-linejoin: round; stroke-linecap: butt}</style>
 </defs>
 <g id="figure_1">
  <g id="patch_1">
   <path d="M 0 345.6 
L 460.8 345.6 
L 460.8 0 
L 0 0 
z
" style="fill: #ffffff"/>
  </g>
  <g id="axes_1">
   <g id="patch_2">
    <path d="M 57.6 307.584 
L 414.72 307.584 
L 414.72 41.472 
L 57.6 41.472 
z
" style="fill: #ffffff"/>
   </g>
   <g id="matplotlib.axis_1">
    <g id="xtick_1">
     <g id="line2d_1">
      <defs>
       <path id="m558567e89a" d="M 0 0 
L 0 3.5 
" style="stroke: #000000; stroke-width: 0.8"/>
      </defs>
      <g>
       <use xlink:href="#m558567e89a" x="73.832727" y="307.584" style="stroke: #000000; stroke-width: 0.8"/>
      </g>
     </g>
     <g id="text_1">
      <!-- 0 -->
      <g transform="translate(70.651477 322.182437) scale(0.1 -0.1)">
       <defs>
        <path id="DejaVuSans-30" d="M 2034 4250 
Q 1547 4250 1301 3770 
Q 1056 3291 1056 2328 
Q 1056 1369 1301 889 
Q 1547 409 2034 409 
Q 2525 409 2770 889 
Q 3016 1369 3016 2328 
Q 3016 3291 2770 3770 
Q 2525 4250 2034 4250 
z
M 2034 4750 
Q 2819 4750 3233 4129 
Q 3647 3509 3647 2328 
Q 3647 1150 3233 529 
Q 2819 -91 2034 -91 
Q 1250 -91 836 529 
Q 422 1150 422 2328 
Q 422 3509 836 4129 
Q 1250 4750 2034 4750 
z
" transform="scale(0.015625)"/>
       </defs>
       <use xlink:href="#DejaVuSans-30"/>
      </g>
     </g>
    </g>
    <g id="xtick_2">
     <g id="line2d_2">
      <g>
       <use xlink:href="#m558567e89a" x="118.366958" y="307.584" style="stroke: #000000; stroke-width: 0.8"/>
      </g>
     </g>
     <g id="text_2">
      <!-- 100 -->
      <g transform="translate(108.823208 322.182437) scale(0.1 -0.1)">
       <defs>
        <path id="DejaVuSans-31" d="M 794 531 
L 1825 531 
L 1825 4091 
L 703 3866 
L 703 4441 
L 1819 4666 
L 2450 4666 
L 2450 531 
L 3481 531 
L 3481 0 
L 794 0 
L 794 531 
z
" transform="scale(0.015625)"/>
       </defs>
       <use xlink:href="#DejaVuSans-31"/>
       <use xlink:href="#DejaVuSans-30" x="63.623047"/>
       <use xlink:href="#DejaVuSans-30" x="127.246094"/>
      </g>
     </g>
    </g>
    <g id="xtick_3">
     <g id="line2d_3">
      <g>
       <use xlink:href="#m558567e89a" x="162.90119" y="307.584" style="stroke: #000000; stroke-width: 0.8"/>
      </g>
     </g>
     <g id="text_3">
      <!-- 200 -->
      <g transform="translate(153.35744 322.182437) scale(0.1 -0.1)">
       <defs>
        <path id="DejaVuSans-32" d="M 1228 531 
L 3431 531 
L 3431 0 
L 469 0 
L 469 531 
Q 828 903 1448 1529 
Q 2069 2156 2228 2338 
Q 2531 2678 2651 2914 
Q 2772 3150 2772 3378 
Q 2772 3750 2511 3984 
Q 2250 4219 1831 4219 
Q 1534 4219 1204 4116 
Q 875 4013 500 3803 
L 500 4441 
Q 881 4594 1212 4672 
Q 1544 4750 1819 4750 
Q 2544 4750 2975 4387 
Q 3406 4025 3406 3419 
Q 3406 3131 3298 2873 
Q 3191 2616 2906 2266 
Q 2828 2175 2409 1742 
Q 1991 1309 1228 531 
z
" transform="scale(0.015625)"/>
       </defs>
       <use xlink:href="#DejaVuSans-32"/>
       <use xlink:href="#DejaVuSans-30" x="63.623047"/>
       <use xlink:href="#DejaVuSans-30" x="127.246094"/>
      </g>
     </g>
    </g>
    <g id="xtick_4">
     <g id="line2d_4">
      <g>
       <use xlink:href="#m558567e89a" x="207.435421" y="307.584" style="stroke: #000000; stroke-width: 0.8"/>
      </g>
     </g>
     <g id="text_4">
      <!-- 300 -->
      <g transform="translate(197.891671 322.182437) scale(0.1 -0.1)">
       <defs>
        <path id="DejaVuSans-33" d="M 2597 2516 
Q 3050 2419 3304 2112 
Q 3559 1806 3559 1356 
Q 3559 666 3084 287 
Q 2609 -91 1734 -91 
Q 1441 -91 1130 -33 
Q 819 25 488 141 
L 488 750 
Q 750 597 1062 519 
Q 1375 441 1716 441 
Q 2309 441 2620 675 
Q 2931 909 2931 1356 
Q 2931 1769 2642 2001 
Q 2353 2234 1838 2234 
L 1294 2234 
L 1294 2753 
L 1863 2753 
Q 2328 2753 2575 2939 
Q 2822 3125 2822 3475 
Q 2822 3834 2567 4026 
Q 2313 4219 1838 4219 
Q 1578 4219 1281 4162 
Q 984 4106 628 3988 
L 628 4550 
Q 988 4650 1302 4700 
Q 1616 4750 1894 4750 
Q 2613 4750 3031 4423 
Q 3450 4097 3450 3541 
Q 3450 3153 3228 2886 
Q 3006 2619 2597 2516 
z
" transform="scale(0.015625)"/>
       </defs>
       <use xlink:href="#DejaVuSans-33"/>
       <use xlink:href="#DejaVuSans-30" x="63.623047"/>
       <use xlink:href="#DejaVuSans-30" x="127.246094"/>
      </g>
     </g>
    </g>
    <g id="xtick_5">
     <g id="line2d_5">
      <g>
       <use xlink:href="#m558567e89a" x="251.969652" y="307.584" style="stroke: #000000; stroke-width: 0.8"/>
      </g>
     </g>
     <g id="text_5">
      <!-- 400 -->
      <g transform="translate(242.425902 322.182437) scale(0.1 -0.1)">
       <defs>
        <path id="DejaVuSans-34" d="M 2419 4116 
L 825 1625 
L 2419 1625 
L 2419 4116 
z
M 2253 4666 
L 3047 4666 
L 3047 1625 
L 3713 1625 
L 3713 1100 
L 3047 1100 
L 3047 0 
L 2419 0 
L 2419 1100 
L 313 1100 
L 313 1709 
L 2253 4666 
z
" transform="scale(0.015625)"/>
       </defs>
       <use xlink:href="#DejaVuSans-34"/>
       <use xlink:href="#DejaVuSans-30" x="63.623047"/>
       <use xlink:href="#DejaVuSans-30" x="127.246094"/>
      </g>
     </g>
    </g>
    <g id="xtick_6">
     <g id="line2d_6">
      <g>
       <use xlink:href="#m558567e89a" x="296.503883" y="307.584" style="stroke: #000000; stroke-width: 0.8"/>
      </g>
     </g>
     <g id="text_6">
      <!-- 500 -->
      <g transform="translate(286.960133 322.182437) scale(0.1 -0.1)">
       <defs>
        <path id="DejaVuSans-35" d="M 691 4666 
L 3169 4666 
L 3169 4134 
L 1269 4134 
L 1269 2991 
Q 1406 3038 1543 3061 
Q 1681 3084 1819 3084 
Q 2600 3084 3056 2656 
Q 3513 2228 3513 1497 
Q 3513 744 3044 326 
Q 2575 -91 1722 -91 
Q 1428 -91 1123 -41 
Q 819 9 494 109 
L 494 744 
Q 775 591 1075 516 
Q 1375 441 1709 441 
Q 2250 441 2565 725 
Q 2881 1009 2881 1497 
Q 2881 1984 2565 2268 
Q 2250 2553 1709 2553 
Q 1456 2553 1204 2497 
Q 953 2441 691 2322 
L 691 4666 
z
" transform="scale(0.015625)"/>
       </defs>
       <use xlink:href="#DejaVuSans-35"/>
       <use xlink:href="#DejaVuSans-30" x="63.623047"/>
       <use xlink:href="#DejaVuSans-30" x="127.246094"/>
      </g>
     </g>
    </g>
    <g id="xtick_7">
     <g id="line2d_7">
      <g>
       <use xlink:href="#m558567e89a" x="341.038114" y="307.584" style="stroke: #000000; stroke-width: 0.8"/>
      </g>
     </g>
     <g id="text_7">
      <!-- 600 -->
      <g transform="translate(331.494364 322.182437) scale(0.1 -0.1)">
       <defs>
        <path id="DejaVuSans-36" d="M 2113 2584 
Q 1688 2584 1439 2293 
Q 1191 2003 1191 1497 
Q 1191 994 1439 701 
Q 1688 409 2113 409 
Q 2538 409 2786 701 
Q 3034 994 3034 1497 
Q 3034 2003 2786 2293 
Q 2538 2584 2113 2584 
z
M 3366 4563 
L 3366 3988 
Q 3128 4100 2886 4159 
Q 2644 4219 2406 4219 
Q 1781 4219 1451 3797 
Q 1122 3375 1075 2522 
Q 1259 2794 1537 2939 
Q 1816 3084 2150 3084 
Q 2853 3084 3261 2657 
Q 3669 2231 3669 1497 
Q 3669 778 3244 343 
Q 2819 -91 2113 -91 
Q 1303 -91 875 529 
Q 447 1150 447 2328 
Q 447 3434 972 4092 
Q 1497 4750 2381 4750 
Q 2619 4750 2861 4703 
Q 3103 4656 3366 4563 
z
" transform="scale(0.015625)"/>
       </defs>
       <use xlink:href="#DejaVuSans-36"/>
       <use xlink:href="#DejaVuSans-30" x="63.623047"/>
       <use xlink:href="#DejaVuSans-30" x="127.246094"/>
      </g>
     </g>
    </g>
    <g id="xtick_8">
     <g id="line2d_8">
      <g>
       <use xlink:href="#m558567e89a" x="385.572346" y="307.584" style="stroke: #000000; stroke-width: 0.8"/>
      </g>
     </g>
     <g id="text_8">
      <!-- 700 -->
      <g transform="translate(376.028596 322.182437) scale(0.1 -0.1)">
       <defs>
        <path id="DejaVuSans-37" d="M 525 4666 
L 3525 4666 
L 3525 4397 
L 1831 0 
L 1172 0 
L 2766 4134 
L 525 4134 
L 525 4666 
z
" transform="scale(0.015625)"/>
       </defs>
       <use xlink:href="#DejaVuSans-37"/>
       <use xlink:href="#DejaVuSans-30" x="63.623047"/>
       <use xlink:href="#DejaVuSans-30" x="127.246094"/>
      </g>
     </g>
    </g>
   </g>
   <g id="matplotlib.axis_2">
    <g id="ytick_1">
     <g id="line2d_9">
      <defs>
       <path id="m44b0d0555e" d="M 0 0 
L -3.5 0 
" style="stroke: #000000; stroke-width: 0.8"/>
      </defs>
      <g>
       <use xlink:href="#m44b0d0555e" x="57.6" y="295.488" style="stroke: #000000; stroke-width: 0.8"/>
      </g>
     </g>
     <g id="text_9">
      <!-- −1.00 -->
      <g transform="translate(19.954687 299.287219) scale(0.1 -0.1)">
       <defs>
        <path id="DejaVuSans-2212" d="M 678 2272 
L 4684 2272 
L 4684 1741 
L 678 1741 
L 678 2272 
z
" transform="scale(0.015625)"/>
        <path id="DejaVuSans-2e" d="M 684 794 
L 1344 794 
L 1344 0 
L 684 0 
L 684 794 
z
" transform="scale(0.015625)"/>
       </defs>
       <use xlink:href="#DejaVuSans-2212"/>
       <use xlink:href="#DejaVuSans-31" x="83.789062"/>
       <use xlink:href="#DejaVuSans-2e" x="147.412109"/>
       <use xlink:href="#DejaVuSans-30" x="179.199219"/>
       <use xlink:href="#DejaVuSans-30" x="242.822266"/>
      </g>
     </g>
    </g>
    <g id="ytick_2">
     <g id="line2d_10">
      <g>
       <use xlink:href="#m44b0d0555e" x="57.6" y="265.248" style="stroke: #000000; stroke-width: 0.8"/>
      </g>
     </g>
     <g id="text_10">
      <!-- −0.75 -->
      <g transform="translate(19.954687 269.047219) scale(0.1 -0.1)">
       <use xlink:href="#DejaVuSans-2212"/>
       <use xlink:href="#DejaVuSans-30" x="83.789062"/>
       <use xlink:href="#DejaVuSans-2e" x="147.412109"/>
       <use xlink:href="#DejaVuSans-37" x="179.199219"/>
       <use xlink:href="#DejaVuSans-35" x="242.822266"/>
      </g>
     </g>
    </g>
    <g id="ytick_3">
     <g id="line2d_11">
      <g>
       <use xlink:href="#m44b0d0555e" x="57.6" y="235.008" style="stroke: #000000; stroke-width: 0.8"/>
      </g>
     </g>
     <g id="text_11">
      <!-- −0.50 -->
      <g transform="translate(19.954687 238.807219) scale(0.1 -0.1)">
       <use xlink:href="#DejaVuSans-2212"/>
       <use xlink:href="#DejaVuSans-30" x="83.789062"/>
       <use xlink:href="#DejaVuSans-2e" x="147.412109"/>
       <use xlink:href="#DejaVuSans-35" x="179.199219"/>
       <use xlink:href="#DejaVuSans-30" x="242.822266"/>
      </g>
     </g>
    </g>
    <g id="ytick_4">
     <g id="line2d_12">
      <g>
       <use xlink:href="#m44b0d0555e" x="57.6" y="204.768" style="stroke: #000000; stroke-width: 0.8"/>
      </g>
     </g>
     <g id="text_12">
      <!-- −0.25 -->
      <g transform="translate(19.954687 208.567219) scale(0.1 -0.1)">
       <use xlink:href="#DejaVuSans-2212"/>
       <use xlink:href="#DejaVuSans-30" x="83.789062"/>
       <use xlink:href="#DejaVuSans-2e" x="147.412109"/>
       <use xlink:href="#DejaVuSans-32" x="179.199219"/>
       <use xlink:href="#DejaVuSans-35" x="242.822266"/>
      </g>
     </g>
    </g>
    <g id="ytick_5">
     <g id="line2d_13">
      <g>
       <use xlink:href="#m44b0d0555e" x="57.6" y="174.528" style="stroke: #000000; stroke-width: 0.8"/>
      </g>
     </g>
     <g id="text_13">
      <!-- 0.00 -->
      <g transform="translate(28.334375 178.327219) scale(0.1 -0.1)">
       <use xlink:href="#DejaVuSans-30"/>
       <use xlink:href="#DejaVuSans-2e" x="63.623047"/>
       <use xlink:href="#DejaVuSans-30" x="95.410156"/>
       <use xlink:href="#DejaVuSans-30" x="159.033203"/>
      </g>
     </g>
    </g>
    <g id="ytick_6">
     <g id="line2d_14">
      <g>
       <use xlink:href="#m44b0d0555e" x="57.6" y="144.288" style="stroke: #000000; stroke-width: 0.8"/>
      </g>
     </g>
     <g id="text_14">
      <!-- 0.25 -->
      <g transform="translate(28.334375 148.087219) scale(0.1 -0.1)">
       <use xlink:href="#DejaVuSans-30"/>
       <use xlink:href="#DejaVuSans-2e" x="63.623047"/>
       <use xlink:href="#DejaVuSans-32" x="95.410156"/>
       <use xlink:href="#DejaVuSans-35" x="159.033203"/>
      </g>
     </g>
    </g>
    <g id="ytick_7">
     <g id="line2d_15">
      <g>
       <use xlink:href="#m44b0d0555e" x="57.6" y="114.048" style="stroke: #000000; stroke-width: 0.8"/>
      </g>
     </g>
     <g id="text_15">
      <!-- 0.50 -->
      <g transform="translate(28.334375 117.847219) scale(0.1 -0.1)">
       <use xlink:href="#DejaVuSans-30"/>
       <use xlink:href="#DejaVuSans-2e" x="63.623047"/>
       <use xlink:href="#DejaVuSans-35" x="95.410156"/>
       <use xlink:href="#DejaVuSans-30" x="159.033203"/>
      </g>
     </g>
    </g>
    <g id="ytick_8">
     <g id="line2d_16">
      <g>
       <use xlink:href="#m44b0d0555e" x="57.6" y="83.808" style="stroke: #000000; stroke-width: 0.8"/>
      </g>
     </g>
     <g id="text_16">
      <!-- 0.75 -->
      <g transform="translate(28.334375 87.607219) scale(0.1 -0.1)">
       <use xlink:href="#DejaVuSans-30"/>
       <use xlink:href="#DejaVuSans-2e" x="63.623047"/>
       <use xlink:href="#DejaVuSans-37" x="95.410156"/>
       <use xlink:href="#DejaVuSans-35" x="159.033203"/>
      </g>
     </g>
    </g>
    <g id="ytick_9">
     <g id="line2d_17">
      <g>
       <use xlink:href="#m44b0d0555e" x="57.6" y="53.568" style="stroke: #000000; stroke-width: 0.8"/>
      </g>
     </g>
     <g id="text_17">
      <!-- 1.00 -->
      <g transform="translate(28.334375 57.367219) scale(0.1 -0.1)">
       <use xlink:href="#DejaVuSans-31"/>
       <use xlink:href="#DejaVuSans-2e" x="63.623047"/>
       <use xlink:href="#DejaVuSans-30" x="95.410156"/>
       <use xlink:href="#DejaVuSans-30" x="159.033203"/>
      </g>
     </g>
    </g>
   </g>
   <g id="line2d_18">
    <path d="M 73.832727 53.568 
L 75.168754 53.729262 
L 76.504781 54.212618 
L 77.840808 55.016778 
L 79.176835 56.1396 
L 80.512862 57.578088 
L 81.848889 59.328408 
L 83.184916 61.385893 
L 84.966285 64.597419 
L 86.747654 68.329948 
L 88.529024 72.565792 
L 90.755735 78.537578 
L 92.982447 85.220044 
L 95.209158 92.563715 
L 97.881212 102.172037 
L 100.998608 114.348793 
L 104.561347 129.322863 
L 108.569428 147.177047 
L 115.249562 178.171352 
L 121.929697 208.924087 
L 125.937778 226.406769 
L 129.500516 240.916044 
L 132.617912 252.589308 
L 135.289966 261.699898 
L 137.516678 268.586151 
L 139.743389 274.77603 
L 141.970101 280.223707 
L 143.75147 284.020168 
L 145.53284 287.297703 
L 147.314209 290.040779 
L 148.650236 291.739429 
L 149.986263 293.12555 
L 151.32229 294.195446 
L 152.658316 294.946265 
L 153.994343 295.376005 
L 155.33037 295.48352 
L 156.666397 295.268522 
L 158.002424 294.731586 
L 159.338451 293.874144 
L 160.674478 292.69848 
L 162.010505 291.207731 
L 163.346532 289.40587 
L 164.682559 287.297703 
L 166.463928 284.020168 
L 168.245297 280.223707 
L 170.026667 275.926313 
L 172.253378 269.88138 
L 174.48009 263.130483 
L 176.706801 255.723604 
L 179.378855 246.046984 
L 182.496251 233.801867 
L 186.05899 218.765796 
L 190.512413 198.827722 
L 198.528575 161.539152 
L 204.318025 135.174621 
L 208.326105 117.996229 
L 211.443502 105.551492 
L 214.115556 95.674297 
L 216.787609 86.637554 
L 219.014321 79.818727 
L 221.241033 73.701094 
L 223.022402 69.342467 
L 224.803771 65.482356 
L 226.58514 62.139055 
L 228.36651 59.328408 
L 229.702536 57.578088 
L 231.038563 56.1396 
L 232.37459 55.016778 
L 233.710617 54.212618 
L 235.046644 53.729262 
L 236.382671 53.568 
L 237.718698 53.728382 
L 239.054725 54.209103 
L 240.390752 55.008888 
L 241.726779 56.125616 
L 243.062806 57.556326 
L 244.398833 59.297224 
L 245.73486 61.343694 
L 247.516229 64.538158 
L 249.297598 68.251063 
L 251.078967 72.464908 
L 253.305679 78.406186 
L 255.532391 85.055235 
L 257.759102 92.363097 
L 260.431156 101.926081 
L 263.548552 114.048 
L 267.111291 128.958994 
L 271.119371 146.744971 
L 277.354164 175.566258 
L 284.479641 208.334582 
L 288.487722 225.804685 
L 292.05046 240.320437 
L 295.167856 252.014151 
L 297.83991 261.153769 
L 300.066622 268.072498 
L 302.293333 274.302434 
L 304.520045 279.797703 
L 306.301414 283.637577 
L 308.082783 286.96316 
L 309.864153 289.758776 
L 311.20018 291.499674 
L 312.536207 292.930384 
L 313.872233 294.047112 
L 315.20826 294.846897 
L 316.544287 295.327618 
L 317.880314 295.488 
L 319.216341 295.327618 
L 320.552368 294.846897 
L 321.888395 294.047112 
L 323.224422 292.930384 
L 324.560449 291.499674 
L 325.896476 289.758776 
L 327.232503 287.712306 
L 329.013872 284.517842 
L 330.795241 280.804937 
L 332.576611 276.591092 
L 334.803322 270.649814 
L 337.030034 264.000765 
L 339.256745 256.692903 
L 341.928799 247.129919 
L 345.046195 235.008 
L 348.608934 220.097006 
L 352.617015 202.311029 
L 358.851807 173.489742 
L 365.977284 140.721418 
L 369.985365 123.251315 
L 373.548103 108.735563 
L 376.665499 97.041849 
L 379.337553 87.902231 
L 381.564265 80.983502 
L 383.790976 74.753566 
L 386.017688 69.258297 
L 387.799057 65.418423 
L 389.580426 62.09284 
L 391.361796 59.297224 
L 392.697823 57.556326 
L 394.03385 56.125616 
L 395.369877 55.008888 
L 396.705903 54.209103 
L 398.04193 53.728382 
L 398.487273 53.63929 
L 398.487273 53.63929 
" clip-path="url(#pa0a154dddf)" style="fill: none; stroke: #1f77b4; stroke-width: 1.5; stroke-linecap: square"/>
   </g>
   <g id="line2d_19">
    <path d="M 73.832727 174.528 
L 81.403547 139.633165 
L 85.411627 122.179464 
L 88.529024 109.450894 
L 91.64642 97.666109 
L 94.318474 88.446015 
L 96.545185 81.459583 
L 98.771897 75.162196 
L 100.998608 69.600479 
L 102.779978 65.70865 
L 104.561347 62.332558 
L 106.342716 59.488204 
L 107.678743 57.712097 
L 109.01477 56.247465 
L 110.350797 55.098211 
L 111.686824 54.267402 
L 113.022851 53.757251 
L 114.358878 53.56912 
L 115.694905 53.70351 
L 117.030932 54.160062 
L 118.366958 54.937559 
L 119.702985 56.033928 
L 121.039012 57.446246 
L 122.375039 59.170747 
L 123.711066 61.202832 
L 125.492435 64.381264 
L 127.273805 68.081724 
L 129.055174 72.286674 
L 131.281886 78.221721 
L 133.508597 84.869786 
L 135.735309 92.181648 
L 138.407363 101.755553 
L 141.524759 113.89779 
L 145.087497 128.840445 
L 149.095578 146.670226 
L 155.33037 175.569102 
L 162.455847 208.424702 
L 166.463928 225.936041 
L 170.026667 240.480283 
L 173.144063 252.190938 
L 175.816117 261.338199 
L 178.042828 268.257974 
L 180.26954 274.483804 
L 182.496251 279.969596 
L 184.277621 283.797918 
L 186.05899 287.108367 
L 187.840359 289.885253 
L 189.176386 291.609754 
L 190.512413 293.022072 
L 191.84844 294.118441 
L 193.184467 294.895938 
L 194.520494 295.35249 
L 195.856521 295.48688 
L 197.192548 295.298749 
L 198.528575 294.788598 
L 199.864602 293.957789 
L 201.200629 292.808535 
L 202.536655 291.343903 
L 203.872682 289.567796 
L 205.208709 287.484951 
L 206.990079 284.240391 
L 208.771448 280.475861 
L 210.552817 276.209202 
L 212.779529 270.200787 
L 215.00624 263.484043 
L 217.232952 256.1087 
L 219.905006 246.46614 
L 223.022402 234.255091 
L 226.58514 219.249881 
L 230.593221 201.371626 
L 237.273356 170.375733 
L 243.95349 139.72578 
L 247.961571 122.312852 
L 251.52431 107.866746 
L 254.641706 96.247446 
L 257.31376 87.180776 
L 259.540471 80.328715 
L 261.767183 74.170268 
L 263.993895 68.750783 
L 265.775264 64.974254 
L 267.556633 61.714111 
L 269.338002 58.98572 
L 270.674029 57.296221 
L 272.010056 55.9176 
L 273.346083 54.853513 
L 274.68211 54.106781 
L 276.018137 53.679384 
L 277.354164 53.572456 
L 278.690191 53.78628 
L 280.026218 54.32029 
L 281.362245 55.173069 
L 282.698272 56.342356 
L 284.034299 57.82505 
L 285.370325 59.617219 
L 286.706352 61.714111 
L 288.487722 64.974254 
L 290.269091 68.750783 
L 292.05046 73.025897 
L 294.277172 79.04001 
L 296.503883 85.757226 
L 298.730595 93.128086 
L 301.402649 102.759195 
L 304.520045 114.949386 
L 308.082783 129.922436 
L 312.090864 147.756494 
L 318.770999 178.680267 
L 325.451134 209.33022 
L 329.459214 226.743148 
L 333.021953 241.189254 
L 336.139349 252.808554 
L 338.811403 261.875224 
L 341.038114 268.727285 
L 343.264826 274.885732 
L 345.491538 280.305217 
L 347.272907 284.081746 
L 349.054276 287.341889 
L 350.835645 290.07028 
L 352.171672 291.759779 
L 353.507699 293.1384 
L 354.843726 294.202487 
L 356.179753 294.949219 
L 357.51578 295.376616 
L 358.851807 295.483544 
L 360.187834 295.26972 
L 361.523861 294.73571 
L 362.859888 293.882931 
L 364.195915 292.713644 
L 365.531942 291.23095 
L 366.867969 289.438781 
L 368.203996 287.341889 
L 369.985365 284.081746 
L 371.766734 280.305217 
L 373.548103 276.030103 
L 375.774815 270.01599 
L 378.001526 263.298774 
L 380.228238 255.927914 
L 382.900292 246.296805 
L 386.017688 234.106614 
L 389.580426 219.133564 
L 393.588507 201.299506 
L 398.487273 178.680267 
L 398.487273 178.680267 
" clip-path="url(#pa0a154dddf)" style="fill: none; stroke: #ff7f0e; stroke-width: 1.5; stroke-linecap: square"/>
   </g>
   <g id="patch_3">
    <path d="M 57.6 307.584 
L 57.6 41.472 
" style="fill: none; stroke: #000000; stroke-width: 0.8; stroke-linejoin: miter; stroke-linecap: square"/>
   </g>
   <g id="patch_4">
    <path d="M 414.72 307.584 
L 414.72 41.472 
" style="fill: none; stroke: #000000; stroke-width: 0.8; stroke-linejoin: miter; stroke-linecap: square"/>
   </g>
   <g id="patch_5">
    <path d="M 57.6 307.584 
L 414.72 307.584 
" style="fill: none; stroke: #000000; stroke-width: 0.8; stroke-linejoin: miter; stroke-linecap: square"/>
   </g>
   <g id="patch_6">
    <path d="M 57.6 41.472 
L 414.72 41.472 
" style="fill: none; stroke: #000000; stroke-width: 0.8; stroke-linejoin: miter; stroke-linecap: square"/>
   </g>
  </g>
 </g>
 <defs>
  <clipPath id="pa0a154dddf">
   <rect x="57.6" y="41.472" width="357.12" height="266.112"/>
  </clipPath>
 </defs>
</svg>
